<svg width="64" height="69" viewBox="0 0 64 69" fill="none" xmlns="http://www.w3.org/2000/svg">
<path d="M58 35.6068C58 48.6163 46.7001 59.7615 32 59.7615C17.2999 59.7615 6 48.6163 6 35.6068C6 22.5973 17.2999 11.4521 32 11.4521C46.7001 11.4521 58 22.5973 58 35.6068Z" stroke="#FFFDFC" stroke-width="12"/>
<path opacity="0.2" d="M60.5 35.6067C60.5 50.3956 47.7685 62.4344 32 62.4344C16.2315 62.4344 3.5 50.3956 3.5 35.6067C3.5 20.8178 16.2315 8.77905 32 8.77905C47.7685 8.77905 60.5 20.8178 60.5 35.6067Z" stroke="#FF6100"/>
<ellipse cx="32" cy="35.6067" rx="19" ry="17.9043" fill="#FF6100"/>
<path d="M35.072 46.7405H31.236V34.5885H26.868V31.9845C28.1747 31.9658 29.2667 31.6391 30.144 31.0045C31.0213 30.3511 31.5533 29.5391 31.74 28.5685H35.072V46.7405Z" fill="white"/>
</svg>
