<svg width="64" height="69" viewBox="0 0 64 69" fill="none" xmlns="http://www.w3.org/2000/svg">
<path d="M58 35.3146C58 48.324 46.7001 59.4692 32 59.4692C17.2999 59.4692 6 48.324 6 35.3146C6 22.3051 17.2999 11.1599 32 11.1599C46.7001 11.1599 58 22.3051 58 35.3146Z" stroke="#FEF9F6" stroke-width="12"/>
<path opacity="0.2" d="M60.5 35.3145C60.5 50.1034 47.7685 62.1421 32 62.1421C16.2315 62.1421 3.5 50.1034 3.5 35.3145C3.5 20.5255 16.2315 8.48682 32 8.48682C47.7685 8.48682 60.5 20.5255 60.5 35.3145Z" stroke="#FF6100"/>
<ellipse cx="32" cy="35.3145" rx="19" ry="17.9043" fill="#FF6100"/>
<path d="M29.2424 35.3042L25.5744 35.1922C25.4811 34.7816 25.4344 34.3616 25.4344 33.9322C25.4344 32.2522 26.0318 30.8242 27.2264 29.6482C28.4211 28.4536 30.0358 27.8562 32.0704 27.8562C34.0491 27.8562 35.6358 28.4256 36.8304 29.5642C38.0251 30.6842 38.6224 32.0656 38.6224 33.7082C38.6224 36.0229 37.4464 37.8989 35.0944 39.3362L31.5944 41.4642C30.7731 41.9869 30.2504 42.5376 30.0264 43.1162H38.7344V46.4482H25.2944C25.3131 44.7496 25.6398 43.2656 26.2744 41.9962C26.9278 40.7269 28.0291 39.6256 29.5784 38.6922L32.5744 36.9002C34.0118 36.0416 34.7304 34.9962 34.7304 33.7642C34.7304 33.0736 34.4878 32.4856 34.0024 32.0002C33.5358 31.5149 32.8638 31.2722 31.9864 31.2722C31.0531 31.2722 30.3344 31.5522 29.8304 32.1122C29.3451 32.6722 29.1024 33.4002 29.1024 34.2962C29.1024 34.6322 29.1491 34.9682 29.2424 35.3042Z" fill="white"/>
</svg>
