<svg width="64" height="69" viewBox="0 0 64 69" fill="none" xmlns="http://www.w3.org/2000/svg">
<path d="M58 35.3185C58 48.3279 46.7001 59.4731 32 59.4731C17.2999 59.4731 6 48.3279 6 35.3185C6 22.309 17.2999 11.1638 32 11.1638C46.7001 11.1638 58 22.309 58 35.3185Z" stroke="#FFFDFC" stroke-width="12"/>
<path opacity="0.2" d="M60.5 35.3184C60.5 50.1073 47.7685 62.146 32 62.146C16.2315 62.146 3.5 50.1073 3.5 35.3184C3.5 20.5294 16.2315 8.49072 32 8.49072C47.7685 8.49072 60.5 20.5294 60.5 35.3184Z" stroke="#FF6100"/>
<ellipse cx="32" cy="35.3184" rx="19" ry="17.9043" fill="#FF6100"/>
<path d="M30.3084 38.3881L28.6004 35.7001L33.3604 31.6121H25.4084V28.2801H38.2604V31.3881L33.5564 35.3081C34.9937 35.3641 36.2257 35.9055 37.2524 36.9321C38.2977 37.9401 38.8204 39.2468 38.8204 40.8521C38.8204 42.4948 38.1857 43.9135 36.9164 45.1081C35.6471 46.2841 33.9577 46.8721 31.8484 46.8721C29.8137 46.8721 28.1617 46.3121 26.8924 45.1921C25.6231 44.0535 24.9324 42.6815 24.8204 41.0761L28.5444 40.3481C28.5817 41.2815 28.8991 42.0468 29.4964 42.6441C30.1124 43.2415 30.8964 43.5401 31.8484 43.5401C32.7817 43.5401 33.5284 43.2788 34.0884 42.7561C34.6484 42.2335 34.9284 41.5801 34.9284 40.7961C34.9284 39.9561 34.6484 39.3028 34.0884 38.8361C33.5471 38.3508 32.8377 38.1081 31.9604 38.1081C31.3817 38.1081 30.8311 38.2015 30.3084 38.3881Z" fill="white"/>
</svg>
