<svg width="195" height="101" viewBox="0 0 195 101" fill="none" xmlns="http://www.w3.org/2000/svg">
<path d="M11.2353 97.1492C20.7227 97.8089 123.454 101.174 177.711 99.629C231.968 98.0845 264.664 99.6011 268.913 82.3569C273.163 65.1127 282.116 51.6276 238.174 47.414C238.174 47.414 232.299 0.476703 172.782 0.895702C113.265 1.31469 110.117 73.5526 110.117 73.5526C110.117 73.5526 93.9692 59.0751 67.8724 61.4468C41.7757 63.8185 36.4128 69.5467 37.0501 76.8377C37.6874 84.1287 43.6778 85.6939 43.6778 85.6939C43.6778 85.6939 13.7834 87.8035 4.76562 91.3652C-4.24237 94.9244 1.75164 96.4834 11.2353 97.1492Z" fill="#F1D9F3" fill-opacity="0.05"/>
</svg>
