<svg width="526" height="400" viewBox="0 0 526 400" fill="none" xmlns="http://www.w3.org/2000/svg">
<path d="M442.084 129.351C442.084 129.351 302.54 127.615 273.461 179.651C244.381 231.686 98.9806 256.176 45.4116 231.686C-8.15734 207.202 -18.8692 168.939 42.3504 135.265C119.123 93.0416 110.437 149.212 117.348 139.855C155.964 87.543 227.421 24.3262 278.055 37.311C337.746 52.6171 293.361 109.247 293.361 109.247C293.361 109.247 383.926 81.9042 442.084 129.351Z" fill="white"/>
<path d="M175.507 261.535C175.507 261.535 302.158 244.57 340.421 187.939C378.684 131.309 526 170.723 526 170.723C526 170.723 459.04 178.761 429.961 215.491C429.961 215.491 463.252 200.948 495.393 208.604C495.393 208.604 472.436 223.528 446.031 251.074C419.689 278.562 226.015 295.208 175.507 261.535Z" fill="white"/>
<path d="M285.116 384.68C285.116 384.68 294.478 376.923 272.513 377.832C250.809 378.732 227.615 381.764 237.22 387.224C246.829 392.684 276.111 389.342 285.116 384.68Z" fill="#FFB287"/>
<path d="M331.74 376.977C331.74 376.977 345.629 365.467 313.044 366.816C280.845 368.151 246.437 372.648 260.688 380.754C274.94 388.854 318.387 383.897 331.74 376.977Z" fill="#FFB287"/>
<path d="M322.987 393.221C322.987 393.221 329.351 387.949 314.422 388.564C299.672 389.173 283.906 391.238 290.435 394.947C296.964 398.661 316.869 396.393 322.987 393.221Z" fill="#FFB287"/>
<path d="M500.745 371.352C506.103 368.29 463.246 369.437 441.779 367.778C440.299 367.662 438.645 367.918 436.875 367.957C426.932 366.419 373.175 364.485 352.283 365.611C331.468 366.733 308.918 373.552 329.389 378.993C344.739 383.069 354.28 385.212 389.018 383.215C396.117 382.803 415.355 379.442 430.714 376.139C436.145 376.11 453.608 377.319 459.875 376.957C473.837 376.149 496.18 373.958 500.745 371.352Z" fill="#FFB287"/>
<path d="M488.636 350.769C488.636 350.769 494.082 334.984 503.879 335.526C513.677 336.072 508.232 345.87 508.232 345.87C508.232 345.87 512.584 339.337 518.03 344.782C523.475 350.228 518.03 354.034 518.03 354.034C518.03 354.034 522.382 351.311 522.929 356.21C523.475 361.109 501.698 368.184 493.535 366.008C485.372 363.831 488.636 350.769 488.636 350.769Z" fill="#288453"/>
<path d="M243.999 335.768C181.421 337.04 222.953 347.631 222.953 347.631C222.953 347.631 -2.21374 344.492 62.246 357.196C62.246 357.196 22.5613 364.194 11.7383 370.969C4.7018 375.375 70.6172 391.445 107.395 390.101C159.818 388.186 166.574 382.194 166.323 377.092C166.008 370.79 129.187 370.21 140.305 367.144C156.694 362.622 168.267 369.069 231.372 361.786C271.168 357.196 301.394 358.725 301.394 358.725C301.394 358.725 270.075 368.324 300.688 365.858C360.036 361.075 372.503 367.038 379.834 357.192C390.706 342.596 321.492 334.191 243.999 335.768Z" fill="#FFB287"/>
<path d="M438.583 90.5175L451.447 27.2716C451.525 26.8992 455.901 26.1835 455.901 26.1835L461.521 27.8712L459.436 102.235C459.407 103.357 458.116 103.957 457.096 103.319L439.396 92.2681C438.782 91.8861 438.453 91.1752 438.583 90.5175Z" fill="#1D2538"/>
<path d="M444.875 91.8037L455.412 26.5121C455.562 25.8012 463.938 28.0838 463.914 28.8334L461.675 100.097C461.607 102.245 459.146 103.376 457.216 102.172L446.354 95.0922C445.199 94.3716 444.599 93.0369 444.875 91.8037Z" fill="#1D2538"/>
<path d="M444.294 62.4584C444.294 62.4584 443.342 61.2203 446.983 61.0027C450.639 60.7802 462.613 71.0859 462.613 71.0859L461.767 101.819L438.361 91.6198L444.294 62.4584Z" fill="#C73F37"/>
<path d="M439.419 86.3827C439.419 86.3827 449.744 35.9765 450.233 33.457C450.808 30.4731 453.463 30.3087 453.149 34.2114C452.941 36.7987 443.491 87.5917 443.491 87.5917L439.419 86.3827Z" fill="#F4E8D8"/>
<path d="M445.842 54.7402C445.842 54.7402 446.645 53.9133 448.274 54.0583C454.948 54.6532 462.782 65.07 462.782 65.07L462.579 71.2118C462.579 71.2118 451.94 60.2678 449.372 59.6101C445.721 58.6768 444.541 61.385 444.541 61.385L445.842 54.7402Z" fill="#C73F37"/>
<path d="M461.235 78.6304C461.235 78.6304 452.738 68.5714 445.272 69.4709C442.128 69.8482 443.115 70.8927 443.115 70.8927C443.115 70.8927 442.491 71.3376 445.088 71.2748C448.947 71.1829 461.235 78.6304 461.235 78.6304Z" fill="#1D2538"/>
<path d="M462.178 85.1877C458.522 79.0846 446.403 75.3608 446.403 75.3608C446.403 75.3608 460.055 83.379 462.047 86.9287L462.178 85.1877Z" fill="#1D2538"/>
<path d="M440.691 82.7119C440.691 82.7119 442.191 80.4438 443.453 80.9225C444.715 81.4013 453.038 86.513 454.895 89.0423C456.728 91.5425 443.724 83.181 443.056 82.9005C442.384 82.6248 440.691 82.7119 440.691 82.7119Z" fill="#1D2538"/>
<path d="M461.897 94.9469C461.897 94.9469 460.727 93.0705 458.319 92.3692C455.91 91.668 461.893 96.7846 461.893 96.7846L461.897 94.9469Z" fill="#1D2538"/>
<path d="M377.731 368.479C438.96 367.251 481.614 370.597 493.095 366.008C493.095 366.008 503.807 340.358 490.798 321.99C463.731 293.922 444.88 282.963 402.41 287.553C359.939 292.142 324.225 318.673 312.744 343.927C301.263 369.18 314.021 369.625 318.04 370.201C322.059 370.776 358.663 368.866 377.731 368.479Z" fill="#422D21"/>
<path d="M435.74 292.365C414.694 284.995 401.714 284.037 378.201 296.093C354.688 308.154 349.31 311.491 345.896 327.765C342.482 344.043 365.245 342.103 381.552 338.249C397.869 334.4 459.843 300.804 435.74 292.365Z" fill="#F4E8D8"/>
<path d="M474.53 327.686C452.627 336.512 436.895 339.041 413.682 326.032C388.97 312.187 383.796 308.284 395.765 293.123C405.074 281.328 438.221 289.941 451.022 294.231C462.725 298.153 492.52 320.437 474.53 327.686Z" fill="#F4E8D8"/>
<path d="M400.495 77.4895L488.395 128.466C489.343 129.018 496.631 124.839 497.298 123.887C497.965 122.934 495.107 116.042 493.584 115.138L408.731 64.2919C407.488 63.552 401.356 65.1479 401.356 65.1479L400.495 77.4895Z" fill="#F6874E"/>
<path d="M441.824 89.54L446.989 98.7237L406.796 74.6547C405.665 73.9534 404.891 71.4967 404.891 71.4967L403.169 65.6838L441.824 89.54Z" fill="#F4E8D8"/>
<path d="M497.303 123.881C497.303 123.881 496.674 124.592 495.262 125.443C492.897 126.865 489.812 129.269 488.056 128.345C486.301 127.421 401.902 78.5096 400.5 77.4892C399.436 76.7154 398.971 69.4516 398.971 68.5618C398.971 67.6671 401.365 65.1524 401.365 65.1524C401.365 65.1524 402.163 72.4548 403.566 74.0507C404.968 75.6466 489.976 124.94 489.976 124.94C491.118 125.318 495.006 124.491 497.303 123.881Z" fill="#C73F37"/>
<path d="M401.418 292.563L435.464 100.015C435.542 99.5897 435.691 99.1787 435.914 98.8063C437.084 96.838 438.859 96.5237 441.446 98.0083C441.446 98.0083 455.727 106.346 457.004 107.115C458.281 107.879 459.799 109.373 459.62 111.453L443.656 297.621C443.526 299.159 442.428 300.436 440.929 300.803L424.825 304.745C424.124 304.919 423.384 304.871 422.707 304.619L405.514 298.163C405.108 298.008 404.731 297.786 404.402 297.496L402.584 295.895C401.641 295.058 401.196 293.796 401.418 292.563Z" fill="#F6BE4A"/>
<path d="M435.663 99.2222C436.465 97.578 438.206 96.6059 438.042 97.6215L405.162 296.258C405.041 296.978 404.175 297.292 403.624 296.804L401.452 294.889C401.21 294.676 401.094 294.347 401.152 294.028L435.542 99.5317C435.566 99.4253 435.604 99.3189 435.663 99.2222Z" fill="#F6874E"/>
<path d="M424.027 304.581L450.238 103.319" stroke="#F4E8D8" stroke-width="2" stroke-miterlimit="10"/>
<path d="M431.088 153.125L448.198 193.68L449.392 182.291L432.901 139.298L431.088 153.125Z" fill="#F4E8D8"/>
<path d="M433.699 133.307L450.809 178.185L454.455 149.899L437.964 106.907L433.699 133.307Z" fill="#F4E8D8"/>
<path d="M483.147 320.08C483.147 320.08 485.444 328.882 466.695 335.004C466.69 334.999 492.326 334.617 483.147 320.08Z" fill="#F4E8D8"/>
<path d="M450.62 217.406L445.649 215.873L441.823 222.765L444.88 229.269L434.932 241.127L431.871 245.243" fill="#F4E8D8"/>
<path d="M450.62 217.406L445.649 215.873L441.823 222.765L444.88 229.269L434.932 241.127L431.871 245.243" stroke="#F4E8D8" stroke-width="2" stroke-miterlimit="10"/>
<path d="M348.395 331.135C348.395 331.135 358.595 342.799 377.16 340.226C385.188 339.554 409.204 331.71 409.204 331.71C409.204 331.71 365.578 339.859 348.395 331.135Z" fill="#422D21"/>
<path d="M469.752 113.455L475.11 111.162L477.789 118.431L469.752 113.455Z" fill="#C73F37"/>
<path d="M459.068 0.769821C451.418 -0.975994 445.024 5.15612 444.884 14.0496C444.754 22.4934 450.363 30.1779 457.337 31.5851C464.228 32.9779 470.36 27.8034 471.144 19.6836C471.966 11.1383 466.617 2.49146 459.068 0.769821ZM457.289 23.3252C454.648 22.4692 452.399 18.7744 452.274 14.9975C452.143 11.1335 454.281 8.69611 457.037 9.63914C459.77 10.5725 461.984 14.4559 461.999 18.2328C462.013 21.9276 459.915 24.1763 457.289 23.3252Z" fill="#1D2538"/>
<path d="M460.311 6.22947C455.969 5.15586 452.327 8.69102 452.211 13.972C452.187 15.0069 452.308 16.0322 452.54 17.0139C452.39 16.3562 452.293 15.6791 452.274 14.9972C452.143 11.1332 454.281 8.69586 457.037 9.63889C459.77 10.5722 461.985 14.4556 461.999 18.2326C462.014 21.9273 459.91 24.1761 457.289 23.3249C455.654 22.793 454.17 21.1729 453.246 19.1224C454.508 22.0047 456.805 24.2341 459.46 24.8483C463.537 25.7865 467.087 22.5995 467.43 17.6039C467.793 12.4486 464.62 7.2934 460.311 6.22947Z" fill="#F6BE4A"/>
<path d="M452.662 17.4781C452.686 17.5651 452.705 17.6522 452.729 17.7392C452.705 17.6522 452.686 17.5651 452.662 17.4781Z" fill="#F6BE4A"/>
<path d="M452.99 18.4889C453.039 18.6243 453.097 18.7549 453.15 18.8855C453.097 18.7549 453.039 18.6243 452.99 18.4889Z" fill="#F6BE4A"/>
<path d="M449.686 23.2428C449.469 23.2428 449.251 23.1461 449.111 22.9575C444.313 16.6996 447.631 8.12531 447.776 7.7626C447.921 7.39023 448.342 7.20645 448.719 7.35637C449.091 7.50145 449.275 7.92703 449.125 8.29941C449.091 8.38162 445.972 16.4772 450.267 22.0773C450.508 22.3965 450.45 22.8511 450.131 23.0929C449.996 23.1944 449.841 23.2428 449.686 23.2428Z" fill="#F4E8D8"/>
<path d="M454.808 27.2811C454.658 27.2811 454.508 27.2375 454.382 27.1408C453.391 26.4154 452.574 25.6029 451.96 24.7179C451.732 24.3891 451.81 23.9393 452.139 23.7072C452.467 23.4799 452.917 23.5573 453.149 23.8861C453.672 24.6357 454.378 25.337 455.238 25.9656C455.562 26.2026 455.635 26.6572 455.398 26.9812C455.253 27.1795 455.035 27.2811 454.808 27.2811Z" fill="#F4E8D8"/>
<path d="M491.049 373.006C495 370.815 480.652 351.108 470.419 346.282C460.186 341.456 466.652 364.973 474.273 370.37C481.895 375.772 487.098 375.201 491.049 373.006Z" fill="#33A86D"/>
<path d="M483.089 374.369C483.089 374.369 463.271 364.736 452.888 365.089C442.509 365.442 455.238 373.581 455.238 373.581C455.238 373.581 444.284 371.328 441.528 377.082C438.771 382.837 483.089 374.369 483.089 374.369Z" fill="#33A86D"/>
<path d="M502.433 370.162C503.43 368.029 502.67 361.743 493.569 362.782C484.467 363.822 482.286 372.184 485.468 374.22C488.651 376.251 501.437 372.295 502.433 370.162Z" fill="#33A86D"/>
<path d="M422.88 185.106L422.222 192.07C422.111 192.51 422.846 192.858 423.572 192.708L429.157 191.557C429.718 191.441 429.989 191.073 429.742 190.759L424.814 184.946C424.394 184.414 423.03 184.525 422.88 185.106Z" fill="#F6874E"/>
<path d="M448.516 242.215L443.733 246.997L447.558 251.969L448.516 242.215Z" fill="#F6874E"/>
<path d="M411.399 258.091L415.612 263.832L410.06 266.893L411.399 258.091Z" fill="#F6874E"/>
<path d="M468.663 397.196C468.663 397.196 465.331 395.039 459.011 395.861C452.767 396.673 450.451 398.066 454.934 399.338C457.811 400.151 466.453 400.213 468.663 397.196Z" fill="#33A86D"/>
<path d="M444.56 384.569C444.56 384.569 441.228 382.412 434.907 383.234C428.664 384.046 426.347 385.439 430.83 386.711C433.708 387.523 442.345 387.586 444.56 384.569Z" fill="#288453"/>
<path d="M458.908 391.455C458.908 391.455 455.576 389.298 449.255 390.121C443.012 390.933 440.696 392.326 445.179 393.598C448.056 394.41 456.693 394.478 458.908 391.455Z" fill="#33A86D"/>
<path d="M445.131 394.328C445.131 394.328 441.799 392.171 435.478 392.993C429.235 393.806 426.918 395.198 431.401 396.47C434.279 397.283 442.921 397.346 445.131 394.328Z" fill="#33A86D"/>
<path d="M397.448 390.202C397.448 390.202 393.908 387.6 386.866 388.084C379.912 388.563 377.262 389.955 382.132 391.653C385.256 392.746 394.802 393.394 397.448 390.202Z" fill="#288453"/>
<path d="M423.66 391.779C423.66 391.779 420.12 389.177 413.078 389.661C406.124 390.139 403.474 391.532 408.344 393.23C411.473 394.323 421.014 394.971 423.66 391.779Z" fill="#288453"/>
<path d="M408.91 386.092C408.91 386.092 406.134 384.051 400.621 384.433C395.17 384.81 393.096 385.899 396.911 387.228C399.358 388.084 406.835 388.592 408.91 386.092Z" fill="#288453"/>
<path d="M409.479 392.34C409.479 392.34 405.939 389.739 398.898 390.222C391.944 390.701 389.294 392.094 394.164 393.791C397.292 394.884 406.839 395.532 409.479 392.34Z" fill="#288453"/>
<path d="M443.352 264.339C443.352 264.339 442.588 258.217 439.783 260.002C436.978 261.786 436.978 263.571 438.255 265.868C439.526 268.17 442.331 266.637 443.352 264.339Z" fill="#288453"/>
<path d="M440.29 255.155C440.29 255.155 439.526 249.033 436.721 250.817C433.916 252.602 433.916 254.386 435.193 256.684C436.47 258.981 439.27 257.453 440.29 255.155Z" fill="#33A86D"/>
<path d="M441.823 247.123C441.823 247.123 441.059 241 438.254 242.785C435.449 244.569 435.449 246.354 436.726 248.651C437.993 250.948 440.802 249.42 441.823 247.123Z" fill="#33A86D"/>
<path d="M451.002 210.77C451.002 210.77 450.238 204.648 447.433 206.432C444.628 208.217 444.628 210.001 445.905 212.299C447.177 214.601 449.982 213.068 451.002 210.77Z" fill="#33A86D"/>
<path d="M454.063 203.884C454.063 203.884 453.299 197.761 450.494 199.546C447.689 201.33 447.689 203.115 448.966 205.412C450.242 207.709 453.042 206.181 454.063 203.884Z" fill="#288453"/>
<path d="M445.136 273.015C445.136 273.015 444.507 266.893 442.215 268.677C439.917 270.462 439.917 272.246 440.962 274.543C442.007 276.84 444.304 275.312 445.136 273.015Z" fill="#288453"/>
<path d="M441.567 271.738C441.567 271.738 440.939 265.616 438.646 267.4C436.349 269.185 436.349 270.969 437.394 273.266C438.434 275.564 440.731 274.035 441.567 271.738Z" fill="#288453"/>
<path d="M446.973 261.67C446.973 261.67 446.465 256.708 444.603 258.154C442.741 259.6 442.741 261.046 443.588 262.908C444.434 264.77 446.296 263.532 446.973 261.67Z" fill="#288453"/>
<path d="M439.526 282.039C439.526 282.039 439.101 277.895 437.549 279.104C435.996 280.313 435.996 281.522 436.702 283.074C437.408 284.626 438.961 283.591 439.526 282.039Z" fill="#288453"/>
<path d="M449.092 199.294C449.092 199.294 448.328 193.172 445.523 194.956C442.718 196.741 442.718 198.525 443.995 200.823C445.267 203.12 448.071 201.591 449.092 199.294Z" fill="#288453"/>
<path d="M414.461 293.486C414.461 293.486 406.81 290.619 403.938 294.444C402.99 295.711 402.564 296.954 402.419 298.057C402.124 300.281 402.985 301.906 402.985 301.906C402.985 301.906 395.905 294.637 390.934 298.463C385.957 302.288 392.655 306.882 392.655 306.882C392.655 306.882 387.872 304.967 383.854 306.689C379.835 308.411 382.514 313.575 382.514 313.575C382.514 313.575 385.382 317.212 389.401 314.722C393.419 312.236 393.226 311.467 393.226 311.467C393.226 311.467 395.905 312.424 400.112 309.363C404.32 306.302 404.513 304.962 404.513 304.962C404.513 304.962 408.15 308.024 410.442 306.109C412.739 304.194 413.697 301.901 413.697 301.901C413.697 301.901 414.461 305.92 417.904 305.92C421.352 305.92 426.324 288.51 414.461 293.486Z" fill="#288453"/>
<path d="M456.936 305.881C456.936 305.881 456.171 302.24 453.367 303.304C450.562 304.368 450.562 305.427 451.838 306.795C453.115 308.164 455.915 307.245 456.936 305.881Z" fill="#288453"/>
<path d="M462.29 310.471C462.29 310.471 461.526 306.829 458.721 307.893C455.916 308.957 455.916 310.016 457.192 311.385C458.469 312.754 461.274 311.84 462.29 310.471Z" fill="#288453"/>
<path d="M455.214 313.914C455.214 313.914 454.45 310.272 451.645 311.336C448.84 312.4 448.84 313.459 450.117 314.828C451.389 316.192 454.194 315.283 455.214 313.914Z" fill="#288453"/>
<path d="M468.412 319.466C468.412 319.466 467.648 315.825 464.843 316.889C462.038 317.953 462.038 319.012 463.315 320.38C464.587 321.739 467.392 320.83 468.412 319.466Z" fill="#288453"/>
<path d="M445.649 305.35C445.649 305.35 451.007 302.671 448.71 298.845C446.413 295.02 439.909 295.209 438.762 298.652C438.762 298.652 436.847 286.6 432.451 287.364C428.051 288.129 426.522 291.765 428.051 297.506C428.051 297.506 425.371 293.869 421.546 298.081C417.721 302.289 422.692 305.35 422.692 305.35C422.692 305.35 417.716 301.524 416.57 307.265C415.424 313.005 420.395 317.024 424.414 315.109C428.433 313.194 429.579 311.854 429.579 311.854C429.579 311.854 443.734 318.165 445.649 305.35Z" fill="#288453"/>
<path d="M437.742 305.146C437.742 305.146 436.615 300.441 432.476 301.814C428.336 303.188 428.336 304.561 430.217 306.321C432.093 308.086 436.233 306.911 437.742 305.146Z" fill="#33A86D"/>
<path d="M434.168 301.321C434.168 301.321 433.211 296.615 429.71 297.989C426.203 299.362 426.203 300.735 427.799 302.496C429.39 304.261 432.897 303.086 434.168 301.321Z" fill="#33A86D"/>
<path d="M427.538 301.828C427.538 301.828 426.58 297.123 423.079 298.496C419.573 299.87 419.573 301.243 421.169 303.004C422.755 304.774 426.261 303.594 427.538 301.828Z" fill="#33A86D"/>
<path d="M415.186 301.335C415.186 301.335 417.996 299.41 416.449 295.909C414.964 292.553 412.526 293.796 411.55 295.962C410.573 298.134 413.058 300.876 415.186 301.335Z" fill="#33A86D"/>
<path d="M401.646 306.108C401.646 306.108 401.53 301.228 396.568 301.393C391.606 301.557 391.268 302.887 392.941 305.131C394.614 307.37 399.533 307.394 401.646 306.108Z" fill="#33A86D"/>
<path d="M324.35 176.971C324.35 176.971 322.372 168.933 321.768 162.719C321.187 156.771 324.655 159.189 328.306 163.323C332.131 167.661 335.831 175.438 336.851 177.227C337.872 179.012 328.18 183.093 324.35 176.971Z" fill="#1D2538"/>
<path d="M256.752 266.892C255.591 265.195 248.332 257.07 246.804 252.863C245.276 248.655 242.084 238.577 246.678 233.219C246.678 233.219 240.174 233.219 237.113 246.992C234.051 260.765 247.447 273.711 248.593 274.794C253.691 279.645 260.069 271.738 256.752 266.892Z" fill="#1D2538"/>
<path d="M381.899 300.145C380.472 297.268 375.148 295.923 375.148 295.923C374.737 295.324 373.484 294.342 373.339 293.636C371.366 284.06 369.514 275.394 368.842 273.131C367.444 268.43 366.259 260.891 363.208 250.053C360.156 239.216 348.225 247.485 350.547 258.289C352.201 265.993 364.281 297.345 364.683 297.829L369.983 303.463C371.347 305.117 373.658 306.205 376.052 305.141C378.446 304.077 383.296 302.96 381.899 300.145Z" fill="#1D2538"/>
<path d="M289.342 287.528C292.137 284.254 306.94 281.473 308.594 288.181C310.006 293.892 289.129 330.124 289.129 330.124L289.255 335.265C289.255 335.265 292.717 338.195 292.215 341.039C292.094 341.706 288.534 342.62 285.637 343.259C283.519 343.723 281.769 343.06 281.435 341.634L281.019 339.835L278.369 333.577L285.889 308.478C285.884 308.487 285.521 292.001 289.342 287.528Z" fill="#1D2538"/>
<path d="M332.77 250.058C326.391 250.953 307.516 243.553 304.455 232.842C301.393 222.13 297.568 205.291 297.568 198.404C297.568 198.404 292.466 188.2 290.425 182.334C288.384 176.468 289.661 175.447 292.974 176.975C296.291 178.504 303.686 185.903 303.686 185.903C303.686 185.903 313.377 173.914 325.878 172.637C338.38 171.361 345.266 176.463 349.348 181.821L349.889 182.077C349.889 182.077 361.593 181.821 367.967 181.057C374.345 180.293 377.407 182.077 378.171 188.964C378.935 195.851 378.809 197.635 376.768 201.465C374.727 205.291 363.503 217.216 356.873 222.318C356.873 222.318 361.08 237.049 360.572 241.895C360.064 246.74 339.149 249.163 332.77 250.058Z" fill="#273150"/>
<path d="M322.184 234.878C322.184 234.878 307.516 243.549 304.455 232.837C301.393 222.125 297.568 205.286 297.568 198.399C297.568 198.399 292.466 188.195 290.425 182.329C288.384 176.463 289.661 175.443 292.974 176.971C296.291 178.499 303.686 185.898 303.686 185.898C303.686 185.898 313.377 173.91 325.878 172.633C325.878 172.633 316.119 185.197 314.016 192.084C311.912 198.97 320.776 220.079 320.776 220.079C320.776 220.079 334.201 224.166 334.042 225.689C333.534 230.54 322.184 234.878 322.184 234.878Z" fill="#1D2538"/>
<path d="M326.932 175.728C326.932 175.728 324.582 168.111 323.107 163.004C321.448 157.264 325.544 158.802 329.196 162.941C333.021 167.279 336.435 172.028 337.456 173.813C338.476 175.602 329.041 180.322 326.932 175.728Z" fill="#273150"/>
<path d="M344.405 183.569C345.396 182.448 344.836 180.336 343.155 178.85C341.474 177.364 339.308 177.068 338.318 178.189C337.327 179.31 337.887 181.423 339.568 182.908C341.249 184.394 343.415 184.69 344.405 183.569Z" fill="#121721"/>
<path d="M355.814 228.029C355.814 228.029 368.832 235.042 371.434 238.867L363.334 241.735C363.334 241.735 356.97 235.994 355.814 228.029Z" fill="#992C29"/>
<path d="M328.963 193.384C330.157 192.033 329.481 189.486 327.454 187.694C325.427 185.903 322.815 185.545 321.622 186.896C320.428 188.247 321.103 190.795 323.131 192.586C325.158 194.378 327.769 194.735 328.963 193.384Z" fill="#121721"/>
<path d="M335.831 224.035C335.831 224.035 314.368 220.224 303.308 233.219C293.419 244.84 288.142 248.52 274.229 255.411C265.486 259.74 254.677 259.309 248.593 271.1C244.512 279.007 246.552 290.487 250.634 300.435C259.305 310.127 326.947 290.908 332.005 288.703C346.93 282.198 355.63 268.827 360.321 263.067C364.528 257.902 364.731 241.169 353.197 231.028C348.99 227.328 343.298 224.649 335.831 224.035Z" fill="#273150"/>
<path d="M332.387 227.097C319.761 224.161 314.368 220.224 303.308 233.219C293.419 244.84 288.142 248.52 274.229 255.412C265.486 259.74 254.677 259.309 248.593 271.1C244.512 279.007 246.552 290.487 250.634 300.435C259.305 310.127 326.947 290.908 332.005 288.703C332.005 288.703 314.402 286.406 312.11 279.901C309.813 273.397 320.912 256.945 320.912 256.945C324.737 245.846 336.866 228.136 332.387 227.097Z" fill="#1D2538"/>
<path d="M372.708 193.903C376.556 191.084 377.973 186.474 375.872 183.606C373.771 180.738 368.948 180.699 365.1 183.518C361.252 186.337 359.836 190.947 361.937 193.815C364.038 196.683 368.86 196.722 372.708 193.903Z" fill="#121721"/>
<path d="M371.226 316.853C368.919 313.507 362.482 312.748 362.482 312.748C361.868 312.066 360.204 311.06 359.875 310.204C355.392 298.583 351.258 288.069 349.961 285.356C347.268 279.727 345.619 268.44 339.603 255.426C333.587 242.412 316.075 265.233 323.958 274.272C330.554 281.84 350.314 316.404 350.885 316.936L358.279 323.058C360.233 324.891 363.14 325.844 365.645 324.103C368.155 322.367 373.489 320.132 371.226 316.853Z" fill="#273150"/>
<path d="M250.059 293.955C254.469 287.136 267.7 291.788 270.268 293.578C272.972 295.454 268.44 311.829 268.305 314.039C268.16 316.351 248.443 335.313 244.652 340.42C240.556 345.938 245.672 351.093 243.095 353.646C241.789 354.942 229.012 354.773 228.838 349.091C228.673 343.723 232.088 334.437 232.136 334.002C232.233 333.146 248.322 311.984 248.593 310.833C248.859 309.706 248.748 295.981 250.059 293.955Z" fill="#1D2538"/>
<path d="M343.355 225.825C343.355 225.825 357.641 225.317 356.877 222.318C362.013 218.459 369.344 210.552 369.344 210.552L354.328 218.938L343.355 225.825Z" fill="#1D2538"/>
<path d="M302.414 227.096C302.414 227.096 300.949 231.56 301.519 234.621C301.519 234.621 313.672 236.788 333.66 236.788C344.372 236.788 359.678 234.239 359.678 234.239L358.149 226.172C358.149 226.172 327.16 231.942 302.414 227.096Z" fill="#992C29"/>
<path d="M355.147 228.567C355.147 228.567 364.268 221.24 369.612 220.868L376.672 232.832C376.672 232.832 360.525 231.236 355.147 228.567Z" fill="#C93F37"/>
<path d="M355.146 228.566C359.808 231.516 376.667 232.832 376.667 232.832C376.667 232.832 369.78 227.324 367.561 227.101C365.341 226.879 355.146 228.566 355.146 228.566Z" fill="#992C29"/>
<path d="M138.395 85.3571C146.433 85.9325 165.965 103.217 179.719 117.855C197.511 136.793 219.365 156.892 228.312 160.901C239.411 165.877 251.844 172.382 257.009 172.382C257.009 172.382 233.095 197.853 223.336 206.461C213.576 215.07 218.746 197.853 206.119 206.461C193.492 215.07 172.064 240.493 172.064 240.493C172.064 240.493 160.965 237.214 144.513 222.125C123.021 202.419 88.8401 115.563 93.6229 100.45C98.4106 85.3329 130.74 83.2534 138.395 85.3571Z" fill="#992C29"/>
<path d="M138.395 85.3571C146.433 85.9326 166.541 102.283 180.295 116.922C198.087 135.86 222.141 156.321 231.122 160.263C241.389 164.765 262.373 173.746 267.537 173.746L257.396 181.183C257.396 181.183 234.372 179.8 216.072 159.755C193.933 135.507 157.237 93.4429 138.395 85.3571Z" fill="#29ACE4"/>
<path d="M101.68 96.9399C101.68 96.9399 81.2957 97.2494 71.7977 93.8497C62.2997 90.4499 64.974 54.2956 83.8684 49.5321C105.457 44.0867 131.397 55.7174 145.746 65.0655C160.094 74.4136 154.267 88.3946 133.501 94.9813C112.43 101.66 101.68 96.9399 101.68 96.9399Z" fill="#229BC6"/>
<path d="M146.883 78.3061C146.883 89.9126 109.147 90.4977 97.6421 90.4977C86.1371 90.4977 76.8083 81.0868 76.8083 69.4803C76.8083 57.8737 86.1371 48.4628 97.6421 48.4628C109.147 48.4628 146.883 66.6995 146.883 78.3061Z" fill="#992C29"/>
<path d="M216.387 207.327C215.685 206.307 204.587 192.277 200.761 188.452C196.936 184.627 225.502 204.522 225.502 204.522C225.502 204.522 222.523 207.719 220.081 208.667C217.789 209.562 217.088 208.348 216.387 207.327Z" fill="#C93F37"/>
<path d="M200.093 179.559L195.117 178.601L188.39 183.607C187.224 182.219 189.096 172.546 190.905 172.421C193.71 172.222 199.61 171.816 203.198 173.901C205.688 175.347 213.644 181.885 212.116 183.418C211.777 183.756 210.171 183.611 210.171 183.611C209.809 183.79 208.45 183.486 207.937 183.674C207.429 183.868 206.443 183.747 205.626 183.403L200.093 179.559Z" fill="#F6874E"/>
<path d="M155.219 105.112C155.219 105.112 164.785 127.314 166.821 132.107C170.613 141.029 162.807 145.493 157.454 141.029C152.1 136.566 141.393 115.819 139.386 110.915C137.374 106.007 149.643 98.6413 155.219 105.112Z" fill="#CE6D3E"/>
<path d="M157.976 111.143C157.976 111.143 165.109 127.755 166.864 132.233C168.939 137.528 162.816 140.619 160.074 137.378C156.728 133.427 154.015 106.046 157.976 111.143Z" fill="#F6874E"/>
<path d="M134.888 85.2312C138.293 83.1227 146.287 87.2865 150.954 96.0784C156.123 105.818 157.555 109.89 157.555 109.89C157.555 109.89 151.906 108.918 149.121 111.428C144.594 115.505 141.064 120.109 141.064 120.109C141.064 120.109 135.841 109.537 133.055 102.428C130.478 95.8221 130.492 87.9587 134.888 85.2312Z" fill="#C93F37"/>
<path d="M191.717 168.774C194.019 174.936 188.259 177.32 184.816 174.636C181.373 171.957 174.592 162.241 166.671 153.628C157.55 143.719 154.237 138.859 160.046 134.617C165.854 130.371 166.124 130.792 175.477 144.111C181.905 153.26 190.629 165.873 191.717 168.774Z" fill="#CE6D3E"/>
<path d="M184.44 159.393C180.102 165.684 163.171 142.283 163.171 142.283C157.783 135.348 158.354 135.333 160.97 133.641C166.266 130.961 166.358 131.343 172.611 139.985C177.538 146.795 185.803 157.41 184.44 159.393Z" fill="#F6874E"/>
<path d="M194.663 174.519L202.531 175.196C202.927 175.23 203.29 175.428 203.537 175.743L212.779 182.126C213.31 182.808 214.326 182.866 214.931 182.247C215.375 181.788 215.467 181.091 215.148 180.535L206.946 172.972C206.787 172.691 206.535 172.474 206.24 172.358L191.824 166.564C191.306 166.356 187.36 164.896 184.763 167.497C182.166 170.099 183.516 172.89 183.777 173.451L185.14 179.539C185.155 179.568 185.165 179.592 185.179 179.617L189.851 188.254C190.102 188.723 190.596 189.008 191.128 189.003L192.172 188.989C193.134 188.979 193.812 188.041 193.517 187.122L191.853 181.909C191.776 181.662 191.766 181.396 191.824 181.14L193.149 175.603C193.313 174.926 193.957 174.461 194.663 174.519Z" fill="#CE6D3E"/>
<path d="M174.491 210.224C174.491 210.224 173.06 216.734 138.042 220.646C123.751 222.242 109.785 221.168 98.6037 220.593C89.1975 220.109 71.8361 216.453 63.9195 213.576C56.0512 210.718 49.097 204.736 67.6481 191.698C86.233 178.635 165.854 186.117 174.491 210.224Z" fill="#EC5E4D"/>
<path d="M82.461 199.623C82.461 199.623 77.0785 196.775 78.8001 193.332C80.5218 189.888 85.2079 189.695 85.2079 189.695L82.461 199.623Z" fill="#C93F37"/>
<path d="M149.28 61.916C148.216 76.9416 134.999 79.2097 119.722 80.5735C110.538 81.3956 100.755 77.7783 94.4051 71.5059C90.1929 67.3469 87.4895 62.0176 87.4798 56.045C87.4508 41.0678 104.348 27.6961 119.625 26.3323C134.897 24.9686 150.421 45.7733 149.28 61.916Z" fill="#273150"/>
<path d="M120.243 30.8129C124.623 24.4378 125.145 17.189 121.41 14.6223C117.674 12.0556 111.095 15.1428 106.715 21.5179C102.334 27.893 101.812 35.1417 105.547 37.7085C109.283 40.2752 115.862 37.188 120.243 30.8129Z" fill="#273150"/>
<path d="M107.797 22.432C108.387 14.9181 105.74 8.58142 101.885 8.2786C98.0293 7.97578 94.4254 13.8215 93.8352 21.3353C93.2451 28.8492 95.8921 35.1859 99.7476 35.4887C103.603 35.7915 107.207 29.9458 107.797 22.432Z" fill="#273150"/>
<path d="M107.779 45.3299C110.784 37.0978 108.237 28.6054 102.09 26.3616C95.9429 24.1178 88.5237 28.9722 85.5188 37.2043C82.5139 45.4364 85.0612 53.9288 91.2083 56.1727C97.3554 58.4165 104.775 53.562 107.779 45.3299Z" fill="#273150"/>
<path d="M100.013 77.9157C108.579 73.8283 112.244 63.6404 108.198 55.1604C104.152 46.6804 93.9275 43.1194 85.3607 47.2068C76.7939 51.2942 73.1291 61.4821 77.1751 69.9621C81.2211 78.4422 91.4457 82.0031 100.013 77.9157Z" fill="#273150"/>
<path d="M141.087 55.0732C147.611 49.4986 147.551 38.7191 140.953 30.9965C134.355 23.2738 123.717 21.5325 117.192 27.107C110.668 32.6816 110.728 43.4611 117.326 51.1837C123.924 58.9064 134.562 60.6477 141.087 55.0732Z" fill="#273150"/>
<path d="M149.154 61.0224C148.288 73.2866 137.499 75.134 125.036 76.2463C117.54 76.9137 109.556 73.9637 104.377 68.8471C100.938 65.4522 98.7379 61.1046 98.7282 56.2299C98.7041 44.0092 112.492 33.099 124.959 31.9819C137.417 30.8744 150.082 47.8538 149.154 61.0224Z" fill="#48598B"/>
<path d="M119.68 32.905C123.443 27.4281 123.89 21.1992 120.679 18.9925C117.467 16.7857 111.813 19.4367 108.049 24.9136C104.286 30.3905 103.839 36.6194 107.051 38.8262C110.263 41.0329 115.917 38.3819 119.68 32.905Z" fill="#48598B"/>
<path d="M106.9 27.0214C107.302 21.8985 105.498 17.5783 102.87 17.3719C100.242 17.1655 97.7853 21.1511 97.383 26.2739C96.9806 31.3967 98.7848 35.7169 101.413 35.9234C104.041 36.1298 106.497 32.1442 106.9 27.0214Z" fill="#48598B"/>
<path d="M110.811 45.3429C113.992 36.6291 112.289 28.0023 107.007 26.0744C101.726 24.1466 94.8655 29.6477 91.6848 38.3615C88.5041 47.0754 90.2071 55.7022 95.4886 57.63C100.77 59.5579 107.63 54.0567 110.811 45.3429Z" fill="#48598B"/>
<path d="M103.817 74.7839C111.179 71.2716 114.328 62.5171 110.851 55.2303C107.375 47.9434 98.5885 44.8836 91.2269 48.3959C83.8654 51.9083 80.7161 60.6627 84.1928 67.9496C87.6694 75.2364 96.4556 78.2963 103.817 74.7839Z" fill="#48598B"/>
<path d="M138.094 55.1515C143.701 50.3612 143.649 41.0981 137.979 34.4619C132.309 27.8257 123.168 26.3293 117.561 31.1196C111.955 35.9099 112.006 45.173 117.676 51.8092C123.346 58.4455 132.487 59.9418 138.094 55.1515Z" fill="#48598B"/>
<path d="M91.3301 232.905C91.3059 238.917 92.897 253.686 100.896 254.073C108.74 254.455 111.859 248.734 114.48 239.724C118.219 226.88 135.44 166.226 115.438 164.562C95.4359 162.899 93.6659 171.816 91.4268 183.461C89.1877 195.112 91.3784 221.778 91.3301 232.905Z" fill="#273150"/>
<path d="M92.2879 242.785C92.5684 244.038 97.8349 234.748 97.8349 234.748C97.8349 234.748 97.4432 215.128 100.514 212.937C111.226 204.135 121.179 208.73 121.179 208.73C125.633 188.65 128.065 165.611 115.438 164.562C95.4362 162.898 93.6662 171.816 91.4271 183.461C90.131 190.222 90.3245 202.041 90.7017 212.947C90.9774 220.834 90.8516 236.377 92.2879 242.785Z" fill="#102441"/>
<path d="M87.0892 252.047C71.43 281.435 75.5213 309.31 74.5589 344.251C74.1769 358.116 82.5046 355.828 84.8259 345.334C87.8581 331.648 97.448 303.033 107.783 264.025C111.037 254.266 97.3174 232.847 87.0892 252.047Z" fill="#CE6D3E"/>
<path d="M89.1448 246.688C93.6569 237.345 102.284 235.304 108.76 238.38C113.011 240.396 113.852 242.408 110.341 255.867C108.146 264.272 106.671 268.552 106.414 269.195C106.414 269.195 96.1136 263.595 81.9536 264.025C81.9536 264.02 86.0836 253.028 89.1448 246.688Z" fill="#102441"/>
<path d="M89.9814 254.217C76.4743 279.573 79.6177 304.275 78.7859 334.418C78.7037 337.383 78.4958 339.772 78.8295 341.759C79.5936 346.286 84.4006 348.249 85.9095 341.44C88.5258 329.631 98.9184 298.201 107.836 264.547C110.641 256.132 98.8072 237.654 89.9814 254.217Z" fill="#F6874E"/>
<path d="M90.9486 248.525C90.9486 248.525 97.0711 232.837 109.21 236.092C113.262 237.175 114.094 242.011 110.525 254.841C108.054 263.739 106.888 268.324 106.656 269.011C106.656 269.011 97.8497 263.207 85.6096 263.909L90.9486 248.525Z" fill="#273150"/>
<path d="M110.462 246.485C110.462 246.485 103.256 247.761 100.703 244.957C100.703 244.957 101.849 249.676 104.402 250.566C106.951 251.461 109.311 248.908 109.311 248.908L107.014 248.651L110.462 246.485Z" fill="#102441"/>
<path d="M77.0103 348.462C78.113 358.478 79.2446 371.308 100.557 368.87C111.366 367.632 97.994 355.078 94.1058 350.406C94.1058 350.406 87.316 342.731 86.7405 341.508C85.2752 338.384 80.1344 337.61 77.3537 343.96C75.9126 347.239 76.8508 347.007 77.0103 348.462Z" fill="#F6874E"/>
<path d="M72.5802 354.517C72.2465 356.277 73.1315 356.993 75.6076 358.57C80.8112 361.887 89.2017 364.779 97.6455 363.889C108.251 362.777 86.7402 358.724 84.8251 356.239C82.91 353.753 82.1411 348.781 80.6178 345.43C78.8332 341.508 78.3206 338.64 76.599 341.701C74.8774 344.758 72.9574 352.529 72.5802 354.517Z" fill="#CE6D3E"/>
<path d="M74.5585 344.439C74.5585 344.439 74.2248 344.71 76.1544 348.395C83.423 362.299 87.1081 362.419 96.1128 362.361C102.047 362.323 92.7953 350.755 92.7953 350.755L87.1178 342.127C87.1178 342.127 91.9345 347.882 97.3508 354.039C100.683 357.82 104.668 361.022 106.085 363.343C108.546 366.762 111.259 372.256 108.353 372.885C98.5937 374.988 85.6573 372.478 83.2586 371.26C80.8599 370.041 80.5794 366.661 77.552 363.13C76.4059 361.791 73.4076 360.451 73.2141 359.242C73.011 356.123 72.0486 353.884 72.7547 350.155C73.5043 346.204 74.5585 344.439 74.5585 344.439Z" fill="#992C29"/>
<path d="M148.129 329.578C146.373 336.324 148.013 337.572 149.87 339.709C163.628 355.571 166.878 349.439 169.078 350.484C176.415 353.971 176.637 345.184 173.324 343.346C170.138 341.576 164.958 334.409 160.934 330.748C159.053 329.036 158.913 327.967 156.345 327.624C153.676 327.271 148.873 326.729 148.129 329.578Z" fill="#F6874E"/>
<path d="M148.172 337.963C155.895 357.96 172.44 352.795 175.699 351.277C177.043 350.648 168.368 340.865 168.368 340.865C168.368 340.865 158.575 338.243 153.284 335.888C147.742 333.422 145.875 332.024 148.172 337.963Z" fill="#CE6D3E"/>
<path d="M147.602 329.848C148.158 328.818 148.264 329.287 148.443 330.037C149.826 335.84 150.3 338.162 154.943 343.148C156.524 344.845 156.486 348.636 169.712 349.299C175.322 349.58 168.368 340.87 168.368 340.87L160.509 330.279L162.845 332.566C162.845 332.566 172.072 342.848 175.69 345.222C179.234 347.548 183.335 358.662 179.95 358.981C171.308 359.793 163.068 358.879 156.186 357.216C152.98 356.258 151.064 349.526 149.831 349.091C149.831 349.091 146.461 346.663 146.427 344.86C146.398 343.119 146.823 331.29 147.602 329.848Z" fill="#992C29"/>
<path d="M161.735 243.68C161.735 243.68 167.093 204.164 159.631 184.08C155.167 172.058 146.772 169.833 137.68 170.123C128.588 170.414 126.731 177.566 128.081 185.222C129.43 192.877 135.765 234.757 138.967 244.347C142.405 254.648 149.195 253.908 153.571 253.889C158.664 253.86 160.642 251.195 161.735 243.68Z" fill="#273150"/>
<path d="M146.045 213.324C149.488 211.027 163.421 209.886 163.421 209.886C163.28 200.76 162.313 191.315 159.624 184.08C155.161 172.058 146.765 169.833 137.673 170.124C128.582 170.414 126.725 177.566 128.074 185.222C128.659 188.544 130.182 198.318 131.986 209.102C131.986 209.102 136.281 234.375 138.002 240.179C138.331 240.009 139.405 233.993 141.063 224.428C142.326 221.081 142.601 215.621 146.045 213.324Z" fill="#102441"/>
<path d="M139.4 252.53C132.32 276.169 139.226 287.301 148.347 330.183C149.188 334.139 157.226 336.943 159.296 330.985C159.639 329.999 159.489 328.118 159.489 325.966C159.489 310.065 163.735 270.733 161.129 255.504C159.112 243.758 142.887 240.88 139.4 252.53Z" fill="#F6874E"/>
<path d="M136.407 267.609C136.262 271.604 136.45 277.417 138.041 285.512C140.421 297.632 144.57 312.846 145.088 315.486C145.948 319.887 148.386 330.696 149.058 333.423C149.479 335.13 154.653 336.915 154.653 336.915C154.653 336.915 151.389 327.673 150.635 325.308C149.077 320.414 141.446 285.725 139.7 268.306C139.502 266.294 136.552 263.571 136.407 267.609Z" fill="#CE6D3E"/>
<path d="M137.649 248.047C140.343 239.855 144.013 238.07 150.484 237.915C155.934 237.785 160.514 237.475 161.041 250.31C161.385 258.681 161.709 264.775 162.11 268.232C162.11 268.232 155.049 265.35 136.305 268.329C136.31 268.329 135.865 253.478 137.649 248.047Z" fill="#273150"/>
<path d="M137.65 248.047C138.211 246.437 138.332 251.955 138.332 251.955L139.715 267.865C139.715 267.865 138.956 267.909 136.31 268.33C136.31 268.33 135.788 258.735 137.65 248.047Z" fill="#102441"/>
<path d="M159.334 248.322C159.334 248.322 152.781 248.076 150.194 246.639C147.607 245.203 154.996 255.272 159.334 248.322Z" fill="#102441"/>
<path d="M138.013 137.968C129.845 146.538 105.742 137.663 104.721 129.524C104.286 126.062 103.034 118.019 99.363 103.337C97.0658 94.1535 96.6838 91.1455 97.7042 89.8542C100.383 86.4642 110.467 85.26 120.792 83.6979C137.819 81.1155 139.028 85.1923 144.643 93.1041C151.481 102.752 154.083 121.11 138.013 137.968Z" fill="#F6BE4A"/>
<path d="M110.268 103.888C102.1 112.458 105.742 137.663 104.721 129.524C104.286 126.062 103.034 118.019 99.363 103.337C97.0658 94.1534 96.6838 91.1454 97.7042 89.8542C100.383 86.4641 110.467 85.2599 120.792 83.6979C137.819 81.1154 139.014 85.139 144.948 93.4135C151.834 103.023 126.338 87.0299 110.268 103.888Z" fill="#D09435"/>
<path d="M105.486 121.492C104.209 126.275 104.446 138.486 104.847 131.183C105.041 127.701 99.3633 102.573 99.3633 102.573L125.763 93.3025L108.416 108.991C108.421 108.991 106.762 116.709 105.486 121.492Z" fill="#D09435"/>
<path d="M102.042 133.736C102.042 133.736 68.1609 181.198 65.7573 187.441C63.349 193.704 55.5098 201.741 55.8483 205.03C58.1067 198.777 78.7325 200.817 82.4514 199.623C82.4514 199.623 74.9023 194.647 81.2763 192.354C87.6502 190.062 102.197 189.811 110.747 189.956C136.272 190.401 165.825 195.304 174.511 210.577C174.511 210.577 159.969 139.114 139.807 123.571C120.057 108.338 102.042 133.736 102.042 133.736Z" fill="#F6BE4A"/>
<path d="M142.602 97.0987C145.949 98.9171 148.947 102.709 148.947 102.709C148.947 102.709 148.343 98.4335 145.378 94.2261C143.144 91.0537 134.952 95.3723 134.952 95.3723C134.952 95.3723 140.479 95.9478 142.602 97.0987Z" fill="#D09435"/>
<path d="M138.56 130.526C133.516 134.699 108.77 133.8 112.503 123.175C114.288 118.087 125.57 111.844 133.675 110.911C147.037 109.373 149.489 121.492 138.56 130.526Z" fill="#FEED7F"/>
<path d="M161.734 188.07L114.287 184.244C102.453 184.244 86.7363 162.816 90.5664 156.693C94.3917 150.571 110.21 130.932 110.21 130.932C111.869 122.769 114.703 116.646 126.537 116.646C126.537 116.646 140.059 117.41 145.668 132.209C145.668 132.209 160.21 154.208 162.503 171.047C164.186 183.393 161.734 188.07 161.734 188.07Z" fill="#FEED7F"/>
<path d="M104.886 182.557C100.48 182.866 96.6065 184.825 92.5587 172.246C92.5636 172.246 97.0224 178.678 104.886 182.557Z" fill="#FEED7F"/>
<path d="M91.0737 152.104C91.0737 152.104 92.3504 161.796 96.6835 168.175C96.6835 168.175 92.8582 157.206 93.1145 150.571C93.3708 143.936 91.0737 152.104 91.0737 152.104Z" fill="#F6BE4A"/>
<path d="M159.113 188.878C159.282 186.373 160.186 178.437 158.46 174.452C158.46 174.452 162.155 180.845 161.976 187.427C161.802 194.009 158.943 191.383 159.113 188.878Z" fill="#F6BE4A"/>
<path d="M103.875 138.457C103.875 138.457 109.301 129.892 119.8 126.323C119.8 126.323 107.265 127.876 102.806 133.993C98.3472 140.111 103.875 138.457 103.875 138.457Z" fill="#F6BE4A"/>
<path d="M125.279 92.2823L124.167 92.4516C121.347 92.882 118.712 90.9475 118.281 88.1281L116.637 77.3873C116.207 74.5678 118.141 71.9322 120.96 71.5018L122.073 71.3325C124.892 70.9021 127.528 72.8365 127.958 75.6559L129.603 86.3968C130.038 89.2162 128.099 91.8519 125.279 92.2823Z" fill="#F6874E"/>
<path d="M123.707 79.6601L121.85 79.9455C119.234 80.3468 116.792 78.5527 116.39 75.9364L114.635 64.4507C114.234 61.8344 116.028 59.3922 118.644 58.9908L120.501 58.7055C123.117 58.3041 125.56 60.0983 125.961 62.7146L127.716 74.2002C128.118 76.8165 126.324 79.2636 123.707 79.6601Z" fill="#CE6D3E"/>
<path d="M85.3963 108.483C82.1417 116.647 76.8897 131.232 75.4195 133.708C73.9494 136.184 73.901 139.966 77.8182 141.9C81.7306 143.84 84.6854 142.863 86.4506 140.759C88.2157 138.655 98.2796 121.618 100.383 114.794C102.037 109.436 100.92 103.555 98.0232 102.167C95.1265 100.78 88.651 100.32 85.3963 108.483Z" fill="#F6874E"/>
<path d="M85.396 108.483C82.1413 116.647 76.8894 131.232 75.4192 133.708C74.9694 134.467 74.6503 135.449 74.5971 135.986C74.481 137.19 75.3563 137.296 76.5798 135.841C77.547 134.69 84.6561 120.254 87.1176 112.289C89.1439 105.727 86.8661 104.793 85.396 108.483Z" fill="#CE6D3E"/>
<path d="M103.063 89.0957C98.8166 87.6256 93.052 89.9227 89.0332 99.6818C86.9247 104.808 83.9941 111.67 83.9941 111.67C83.9941 111.67 90.6291 112.715 99.1696 118.049C99.1696 118.049 101.883 112.691 103.827 107.719C107.908 97.259 106.38 90.2419 103.063 89.0957Z" fill="#EC5E4D"/>
<path d="M103.063 89.0957C98.8166 87.6256 93.052 89.9227 89.0332 99.6818C86.9247 104.808 83.9941 111.67 83.9941 111.67L86.9924 112.309L93.4341 106.859L105.103 103.638C107.696 95.0054 106.017 90.121 103.063 89.0957Z" fill="#C93F37"/>
<path d="M51.05 163.706C51.05 163.706 46.9297 167.962 48.2741 170.37C49.5412 172.629 54.0774 174.471 57.3127 171.845C60.5481 169.219 70.9455 162.395 84.767 143.811C90.6621 135.889 79.2104 130.371 74.6355 135.376C70.0606 140.382 51.05 163.706 51.05 163.706Z" fill="#F6874E"/>
<path d="M55.1072 159.248L65.3113 153.251L77.6383 133.655C77.6383 133.655 75.9506 133.907 74.6352 135.382C70.1231 140.44 55.1072 159.248 55.1072 159.248Z" fill="#CE6D3E"/>
<path d="M41.4594 178.064C41.4594 178.064 37.0005 185.749 35.8109 187.63C34.7711 189.27 33.2236 187.862 33.7024 186.75C34.1811 185.638 37.46 177.716 41.4594 178.064Z" fill="#CE6D3E"/>
<path d="M38.6548 178.064C38.6548 178.064 34.1959 185.749 33.0063 187.63C31.9665 189.27 30.419 187.862 30.8977 186.75C31.3765 185.638 34.6505 177.716 38.6548 178.064Z" fill="#CE6D3E"/>
<path d="M57.6171 169.838C57.2012 172.522 55.528 176.672 51.4608 181.116C48.3222 184.545 47.6113 186.276 46.4652 188.762C46.175 189.386 45.4109 190.164 44.6468 190.865C42.2095 193.1 41.2181 192.751 40.9666 191.267C40.6764 189.526 41.5372 188.21 43.0654 185.894C43.8489 184.704 43.994 183.278 44.2599 182.499C44.6033 181.512 44.7387 179.152 41.8806 178.659C38.9451 178.151 37.3444 174.302 38.3261 172.885C40.0477 170.399 51.2916 163.972 52.5876 164.344C55.4602 164.881 58.033 167.154 57.6171 169.838Z" fill="#F6874E"/>
<path d="M42.8428 175.052C43.8148 175.328 45.0915 177.233 43.781 178.403C42.4704 179.574 35.6322 183.065 33.7413 185.353C31.4925 188.075 30.2545 190.455 28.8569 191.18C27.0724 192.104 24.7849 191.983 26.6323 189.144C29.2486 185.125 31.1879 180.773 35.6757 178.548C40.1684 176.324 41.8707 174.776 42.8428 175.052Z" fill="#F6874E"/>
<path d="M42.6059 178.418C44.7869 176.169 42.3689 170.641 40.7681 171.096C39.1674 171.55 31.8601 177.528 30.1627 178.306C28.4652 179.085 24.6206 184.714 23.7743 186.716C22.9231 188.718 22.8506 189.956 25.1912 189.362C27.5319 188.767 30.2691 182.117 33.4802 180.439C36.6914 178.761 40.4248 180.666 42.6059 178.418Z" fill="#F6874E"/>
<path d="M98.7237 106.95C98.7237 106.95 91.5905 108.377 89.0419 109.929C86.4933 111.482 87.1172 112.289 87.1172 112.289L98.7237 106.95Z" fill="#C93F37"/>
<path d="M132.843 91.2611C118.779 100.827 86.876 104.144 86.9776 103.844C87.998 100.774 94.8991 85.5207 102.042 84.2439C106.834 84.2294 125.608 84.4084 132.843 91.2611Z" fill="#229BC6"/>
<path d="M137.756 83.4848C133.167 82.4644 123.722 90.0328 123.209 92.0736C122.697 94.1144 138.583 90.9468 167.474 107.975C177.397 113.821 145.151 85.2693 137.756 83.4848Z" fill="#29ACE4"/>
<path d="M127.107 92.3975C127.838 92.3975 128.432 91.8043 128.432 91.0725C128.432 90.3406 127.838 89.7474 127.107 89.7474C126.375 89.7474 125.782 90.3406 125.782 91.0725C125.782 91.8043 126.375 92.3975 127.107 92.3975Z" fill="#273150"/>
<path d="M139.145 22.1641C140.595 22.6526 140.426 29.8631 136.818 29.3892C133.424 28.9443 129.69 27.9045 130.831 25.8105C131.968 23.7213 137.694 21.6757 139.145 22.1641Z" fill="#C93F37"/>
<path d="M139.536 24.5095C139.536 24.5095 138.951 28.8716 137.708 29.0505C136.46 29.2246 137.548 27.179 137.834 24.3306C138.119 21.4821 139.734 22.6766 139.536 24.5095Z" fill="#F7BC4B"/>
<path d="M130.226 27.5904C130.226 27.5904 136.581 33.0213 142.621 35.0766C147.186 36.629 150.688 36.6967 150.688 36.6967L149.624 35.2604L151.573 33.6403C151.573 33.6403 143.424 33.5678 131.789 26.5652L130.226 27.5904Z" fill="#C93F37"/>
<path d="M133.345 29.568C133.345 29.568 138.094 35.9661 143.448 39.0176C147.495 41.3244 150.9 41.9966 150.9 41.9966L150.242 40.4152L152.588 39.1772C152.588 39.1772 144.632 37.6925 135.149 28.8474L133.345 29.568Z" fill="#C93F37"/>
<path d="M101.429 58.7593C104.373 56.7381 104.894 52.3829 102.593 49.0317C100.292 45.6804 96.0405 44.6022 93.0966 46.6234C90.1527 48.6445 89.6314 52.9997 91.9323 56.351C94.2331 59.7022 98.4848 60.7805 101.429 58.7593Z" fill="#CE6D3E"/>
<path d="M122.073 28.7658C123.688 31.6094 118.228 35.0237 112.406 38.3316C106.588 41.6394 100.558 42.0166 98.9423 39.1682C97.3271 36.3246 100.732 31.3338 106.549 28.0259C112.372 24.7229 120.458 25.9222 122.073 28.7658Z" fill="#273150"/>
<path d="M96.2001 48.6413C96.4129 31.3814 110.452 26.2504 113.939 25.583C131.329 22.2461 139.154 32.5517 142.476 50.7933C144.904 64.1215 137.016 67.8646 129.124 70.8775C119.626 74.5045 95.9389 70.2004 96.2001 48.6413Z" fill="#CE6D3E"/>
<path d="M101.936 54.2078C102.869 41.136 115.433 36.6384 118.528 35.9807C118.528 35.9807 135.421 40.0865 138.675 42.6448C141.93 45.2031 142.53 53.8016 142.53 53.8016C144.087 63.7784 136.992 66.9557 129.917 69.5865C121.416 72.7444 100.77 70.5295 101.936 54.2078Z" fill="#F6874E"/>
<path d="M107.236 31.923C116.376 25.0849 130.971 27.8462 130.971 27.8462C130.971 27.8462 117.14 16.8491 104.547 28.0155C93.2502 38.031 96.3695 46.9051 97.9605 52.2054C97.9605 52.2054 96.4323 40.0089 107.236 31.923Z" fill="#F6BE4A"/>
<path d="M116.11 47.336C117.114 47.1559 117.656 45.4904 117.32 43.616C116.983 41.7415 115.897 40.368 114.893 40.5481C113.888 40.7281 113.347 42.3936 113.683 44.2681C114.019 46.1425 115.106 47.5161 116.11 47.336Z" fill="#273252"/>
<path d="M133.524 44.8975C134.363 44.7215 134.752 43.1929 134.394 41.4834C134.035 39.7738 133.064 38.5307 132.225 38.7067C131.386 38.8827 130.997 40.4112 131.355 42.1208C131.714 43.8303 132.685 45.0735 133.524 44.8975Z" fill="#273252"/>
<path d="M114.751 34.1874C114.751 34.1874 112.299 34.6371 111.748 36.8714" stroke="#273252" stroke-miterlimit="10" stroke-linecap="round" stroke-linejoin="round"/>
<path d="M133.21 33.5731C133.21 33.5731 131.61 32.1997 129.951 32.4318" stroke="#273252" stroke-miterlimit="10" stroke-linecap="round" stroke-linejoin="round"/>
</svg>
