<svg width="351" height="189" viewBox="0 0 351 189" fill="none" xmlns="http://www.w3.org/2000/svg">
<path d="M249.724 176.144C251.601 176.054 274.134 175.421 280.818 177.316C280.818 177.316 305.673 176.128 305.491 181.453C305.491 181.453 332.342 182.384 337.126 183.929C341.911 185.471 311.946 187.79 306.739 187.154C301.533 186.516 284.413 182.905 261.806 182.212C247.397 181.772 211.485 180.803 194.133 182.788C184.263 183.919 239.93 187.687 229.216 188.199C199.67 189.611 117.689 186.442 139.469 180.527C161.247 174.616 249.724 176.144 249.724 176.144Z" fill="#866694"/>
<path d="M197.185 172.709C235.064 174.212 293.439 174.402 305.921 170.581C305.921 170.581 278.929 168.717 278.216 164.83C277.284 159.745 275.208 151.709 252.859 140.049C252.859 140.049 272.11 107.527 243.936 90.9327C215.762 74.3383 225.154 93.5869 225.154 93.5869C225.154 93.5869 186.802 45.3893 138.752 34.7342C122.787 31.1945 126.543 44.0276 126.543 44.0276C126.543 44.0276 112.455 33.4083 96.4892 36.5053C81.6606 39.3809 57.5181 58.2891 66.1904 90.0376C88.1352 98.7978 95.0821 106.111 95.0821 106.111C95.5495 95.7984 107.993 90.4875 126.424 95.2438C149.412 101.176 147.202 121.462 147.202 121.462C171.956 117.492 177.256 145.8 177.256 145.8C177.256 145.8 176.793 136.383 192.592 148.79C208.391 161.197 197.447 172.35 197.447 172.35L197.185 172.709Z" fill="#F4E8D8"/>
<path d="M223.864 173.236C223.864 173.236 204.066 159.919 189.467 148.455C174.869 136.99 178.817 153.58 178.817 153.58C178.817 153.58 169.086 119.189 146.215 122.857C146.215 122.857 145.727 101.764 128.211 97.1791C110.694 92.5943 96.0222 96.722 96.0222 108.186C96.0222 108.186 88.0396 99.7786 61.7423 90.4875C42.9956 83.8626 28.4576 84.8006 17.7542 93.9702L22.1346 97.1791C22.1346 97.1791 5.59076 99.4715 0.725372 111.852C-4.14001 124.233 16.7816 130.194 24.5673 132.027C32.3529 133.86 98.5282 151.285 98.5282 151.285C98.5282 151.285 83.7451 150.364 82.2875 152.656C80.8274 154.949 99.5437 168.586 122.373 169.627C140.672 170.465 223.864 173.236 223.864 173.236Z" fill="#F4E8D8"/>
<path d="M89.6816 181.867C89.6816 181.867 92.2153 178.246 118.033 179.132C125.063 179.372 143.504 179.21 145.843 181.867C148.182 184.524 170.804 186.478 163.003 186.478C155.203 186.478 92.0234 185.409 89.6816 181.867Z" fill="#866694"/>
<path d="M51.8827 159.962C51.8827 159.962 54.6994 154.651 52.8224 150.228C50.943 145.803 43.4301 146.245 38.734 146.688C34.0379 147.131 34.7427 151.002 34.7427 151.002C34.7427 151.002 29.3039 147.298 24.6456 148.014C18.1887 149.009 19.0098 155.536 19.0098 159.519C19.0098 163.502 25.113 171.245 31.9235 164.387C31.9235 164.387 42.0206 173.681 50.4706 167.041C50.4706 167.041 68.3154 170.138 74.8884 169.253L51.8827 159.962Z" fill="#F4E8D8"/>
<path d="M114.945 17.5258C114.945 17.5258 80.1978 11.7745 75.5017 11.7745C70.8055 11.7745 59.5364 4.25222 73.6222 0.712435C87.7081 -2.82735 100.857 7.792 103.676 11.3318C106.495 14.8716 105.555 11.7745 105.555 11.7745C105.555 11.7745 103.209 5.13776 107.435 5.13776C111.661 5.13776 126.684 10.8866 114.945 17.5258Z" fill="#F4E8D8"/>
<path d="M341.021 116.818C341.021 116.818 350.186 121.59 348.966 121.612C344.583 121.686 339.771 123.602 338.01 124.266C336.249 124.93 324.119 115.047 331.28 112.171C333.859 112.947 341.021 116.818 341.021 116.818Z" fill="#229BC6"/>
<path opacity="0.5" d="M341.021 116.818C341.021 116.818 350.186 121.59 348.966 121.612C344.583 121.686 339.771 123.602 338.01 124.266C336.249 124.93 324.119 115.047 331.28 112.171C333.859 112.947 341.021 116.818 341.021 116.818Z" fill="#229BC6"/>
<path d="M335.191 119.693C335.191 119.693 337.381 117.922 342.861 118.07C347.142 118.184 351 118.808 351 118.808C351 118.808 342.547 112.835 336.209 112.502C329.871 112.171 321.77 111.838 321.77 111.838L335.191 119.693Z" fill="#F6BE4A"/>
<path d="M351 118.81C349.424 117.953 347.784 117.204 346.112 116.528C344.44 115.851 342.732 115.247 340.991 114.733C339.246 114.238 337.475 113.804 335.671 113.533C333.868 113.269 332.034 113.15 330.22 113.281C332.039 113.335 333.83 113.578 335.601 113.899L336.922 114.176C337.364 114.261 337.796 114.385 338.235 114.49L338.892 114.647L339.541 114.825C339.973 114.947 340.41 115.059 340.84 115.19L342.131 115.578C342.56 115.709 342.984 115.859 343.414 115.994C343.843 116.128 344.268 116.278 344.692 116.425C345.117 116.57 345.541 116.718 345.963 116.873C346.387 117.023 346.809 117.177 347.228 117.337C347.65 117.492 348.072 117.651 348.489 117.815C349.335 118.125 350.166 118.468 351 118.81Z" fill="#F4E8D8"/>
<path opacity="0.5" d="M335.191 119.693C335.191 119.693 337.381 117.922 342.861 118.07C347.142 118.184 351 118.808 351 118.808C351 118.808 342.547 112.835 336.209 112.502C329.871 112.171 321.77 111.838 321.77 111.838L335.191 119.693Z" fill="#F6874E"/>
<path d="M296.26 89.0907C296.26 89.0907 293.118 84.1226 291.344 80.0901C289.647 76.2337 292.628 77.1407 296.111 79.1617C299.764 81.2804 304.071 85.7271 305.183 86.7126C306.292 87.6981 300.3 92.402 296.26 89.0907Z" fill="#1D2538"/>
<path d="M297.823 87.7333C297.823 87.7333 294.701 82.9009 292.548 79.7896C290.131 76.2903 292.339 76.745 295.825 78.766C299.478 80.8846 303.765 83.3246 304.874 84.3102C305.983 85.2933 300.309 90.3733 297.823 87.7333Z" fill="#273150"/>
<path d="M279.623 108.336C281.502 105.829 284.39 96.667 286.039 92.1107L290.422 86.2404C290.422 86.2404 300.1 80.5011 309.179 82.4816C318.258 84.4622 321.868 89.3922 323.449 93.8556L323.767 94.146C323.767 94.146 331.869 95.5243 336.53 96.4575C341.188 97.393 342.908 99.2641 341.794 103.992C340.68 108.719 340.162 109.871 337.813 111.943C335.463 114.011 324.899 120.462 319.021 122.338C319.021 122.338 316.563 127.068 313.587 128.984C310.606 130.91 274.858 114.699 279.623 108.336Z" fill="#273150"/>
<path d="M291.663 122.812C291.663 122.812 275.415 114.023 279.313 107.158C282.912 100.816 284.393 96.6671 286.042 92.1132C285.87 92.6346 284.223 86.9976 282.912 81.3463C282.261 78.5373 283.617 78.0279 285.987 79.0444C288.452 80.1013 294.965 83.4126 294.965 83.4126C294.965 83.4126 300.103 80.5036 309.179 82.4842C309.179 82.4842 299.32 88.5901 296.192 92.6679C293.065 96.7457 294.225 112.712 294.225 112.712C294.225 112.712 302.667 118.449 302.189 119.42C300.669 122.507 291.663 122.812 291.663 122.812Z" fill="#1D2538"/>
<path d="M315.537 92.0156C316.53 93.6581 316.394 95.4958 315.232 96.1195C314.07 96.7432 313.019 95.5244 312.024 93.8819C311.028 92.2393 310.473 90.7944 311.635 90.1707C312.797 89.547 314.545 90.373 315.537 92.0156Z" fill="#121721"/>
<path d="M341.921 99.6358C342.504 102.059 342.219 104.437 340.809 105.47C338.015 107.518 333.458 103.564 332.67 101.193C331.882 98.8217 331.26 94.9986 336.113 96.3245C340.175 97.4362 341.514 97.948 341.921 99.6358Z" fill="#121721"/>
<path d="M308.694 121.605C308.694 121.605 316.525 123.567 319.023 122.338C323.55 120.946 330.421 116.275 330.421 116.275L318.043 119.527L308.694 121.605Z" fill="#1D2538"/>
<path d="M333.448 114.992C333.448 114.992 324.761 111.895 321.767 111.84L333.448 114.992Z" fill="#273150"/>
<path d="M201.411 134.06C199.888 133.977 191.829 134.512 188.667 133.555C185.504 132.601 178.145 130.054 177.089 125.224C177.089 125.224 174.136 128.818 180.825 136.402C187.515 143.987 201.186 142.12 202.343 141.954C207.502 141.209 205.759 134.3 201.411 134.06Z" fill="#1D2538"/>
<path d="M308.387 140.049C308.387 140.049 323.531 147.683 326.699 148.678C329.869 149.673 331.63 155.979 331.276 158.633C330.925 161.288 325.994 167.594 325.994 167.594L305.567 151.332C305.57 151.332 298.173 139.718 308.387 140.049Z" fill="#1D2537"/>
<path d="M226.605 148.409C229.26 146.929 252.581 148.033 252.152 152.682C251.937 154.991 227.964 167.782 227.964 167.782L218.892 175.19C218.892 175.19 220.486 177.906 219.484 179.613C219.249 180.015 215.411 180.105 213.302 179.879C211.756 179.715 209.669 174.478 209.669 174.478C209.586 173.383 209.935 171.388 210.917 170.795L216.624 166.215C217.362 165.773 217.91 165.101 218.178 164.313C219.471 160.512 223.586 150.095 226.605 148.409Z" fill="#1D2538"/>
<path d="M299.348 124.562C299.348 124.562 286.788 117.261 276.009 111.695C266.283 117.147 252.823 117.344 241.405 118.758C234.231 119.646 210.536 124.997 203.44 131.42C198.68 135.729 196.407 146.284 202.03 149.34C211.187 154.318 254.958 151.954 271.762 153.766C283.756 155.058 299.84 151.426 304.514 148.676C307.04 147.191 312.923 137.757 311.456 130.489C310.488 125.702 303.67 126.968 299.348 124.562Z" fill="#273150"/>
<path d="M296.685 119.251C296.685 119.251 286.884 105.599 276.006 111.695C266.28 117.147 252.821 117.344 241.403 118.758C234.228 119.646 210.533 124.997 203.437 131.42C198.678 135.729 196.755 148.274 202.381 151.333C211.538 156.31 230.79 155.941 235.838 151.002C237.353 149.519 255.208 137.395 265.068 132.97C273.22 129.313 267.427 123.281 269.764 121.908C273.955 119.441 307.57 125.312 296.685 119.251Z" fill="#1D2538"/>
<path d="M253.947 129.785C253.947 129.785 259.255 148.624 274.066 154.07C274.066 154.07 271.535 155.191 264.34 154.458C259.394 153.956 245.353 140.332 245.952 130.915C246.884 128.049 253.947 129.785 253.947 129.785Z" fill="#634874"/>
<path d="M279 107.746C279 107.746 276.809 108.041 275.243 111.581C275.243 111.581 281.738 118.808 294.652 124.783C304.15 129.177 314.139 130.094 316.096 127.806C318.054 125.519 319.024 122.338 319.024 122.338C319.024 122.338 308.341 125.702 298.527 121.574C289.759 117.887 284.097 113.183 279 107.746Z" fill="#992C29"/>
<path d="M317.923 125.814C317.923 125.814 307.477 128.954 304.094 128.406L306.737 122.941C306.737 122.941 313.075 122.526 317.923 125.814Z" fill="#C93F37"/>
<path d="M317.865 125.759C317.865 125.759 315.857 133.712 312.896 136.209L303.317 132.631C303.319 132.631 313.502 126.59 317.865 125.759Z" fill="#C93F37"/>
<path d="M317.865 125.759C313.793 126.128 303.319 132.631 303.319 132.631C303.319 132.631 309.86 132.717 311.259 131.889C312.659 131.063 317.865 125.759 317.865 125.759Z" fill="#992C29"/>
<path d="M274.834 129.972C279.199 131.829 301.341 132.57 305.532 145.308C305.653 145.679 305.913 145.993 306.272 146.186C307.333 146.757 308.657 146.045 308.672 144.893C308.728 140.432 303.306 132.791 294.323 128.558C283.529 123.474 275.736 125.169 275.736 125.169C275.736 125.169 274.038 129.634 274.834 129.972Z" fill="#634874"/>
<path d="M206.64 142.061C209.053 140.128 216.843 137.99 224.914 141.72C232.986 145.45 232.056 150.718 232.109 151.902C232.235 154.677 222.335 159.517 220.88 160.393C218.475 161.84 205.061 166.761 201.073 169.569C198.718 171.229 193.474 176.582 194.558 177.349C195.515 178.027 196.71 181.122 195.553 181.61C193.158 182.622 180.717 182.093 182.073 177.973C183.354 174.083 183.564 169.205 184.564 167.118C184.85 166.522 195.5 159.348 195.99 158.584C196.47 157.836 205.195 143.22 206.64 142.061Z" fill="#1D2538"/>
<path d="M286.55 145.691C286.55 145.691 291.832 155.315 295.354 157.305C298.875 159.295 312.964 159.959 317.541 162.283C322.119 164.606 324.233 169.917 324.938 170.912C325.643 171.907 335.856 173.235 338.672 167.925C341.489 162.614 331.63 162.283 329.164 159.959C326.698 157.636 324.587 155.313 322.472 153.654C320.36 151.994 313.669 149.34 313.669 149.34C313.669 149.34 303.544 137.98 299.317 137.316C295.091 136.655 284.085 140.713 286.55 145.691Z" fill="#273150"/>
<path d="M275.903 129.092C273.437 132.391 250.762 134.408 232.652 132.22C230.727 131.987 229.032 131.044 228.012 129.661C225.978 126.907 224.263 121.353 223.101 117.356C221.85 113.059 224.427 106.27 226.498 104.611C230.972 101.026 235.638 102.569 240.615 102.145C249.057 101.426 256.486 101.854 263.193 103.754C271.53 106.116 275.94 112.393 279.128 117.151C282.077 121.546 277.148 127.426 275.903 129.092Z" fill="#BB83C3"/>
<path opacity="0.5" d="M231.629 102.914C226.862 102.809 234.181 117.694 237.159 118.106C240.137 118.518 256.532 120.151 261.395 119.037C273.5 117.058 254.006 103.409 231.629 102.914Z" fill="#634874"/>
<path opacity="0.5" d="M229.363 129.22C228.57 131.682 223.336 119.718 222.967 116.413C222.671 113.778 224.096 108.686 224.566 107.749C225.637 105.616 227.564 115.283 229.164 118.861C230.763 122.438 229.697 128.187 229.363 129.22Z" fill="#634874"/>
<path d="M209.213 42.209C209.213 42.209 218.724 32.7585 222.235 23.9602C222.235 23.9602 235.184 27.6119 241.022 26.8882C241.022 26.8882 233.918 41.6615 228 45.137L209.213 42.209Z" fill="#229BC6"/>
<path d="M241.019 26.8906L232.668 30.3161C231.276 30.8851 229.876 31.4373 228.477 31.9777C227.072 32.5109 225.665 33.0442 224.233 33.4774L223.993 33.5512L224.076 33.775L225.127 36.5959L226.158 39.4239C226.499 40.3665 226.827 41.314 227.153 42.2614C227.469 43.2112 227.782 44.1634 227.994 45.1418C227.873 44.1491 227.605 43.1755 227.35 42.2067C227.09 41.2378 226.789 40.2808 226.491 39.3215C226.183 38.3669 225.872 37.4124 225.541 36.4626C225.21 35.5127 224.884 34.5653 224.533 33.6226L224.377 33.9178C225.839 33.4846 227.257 32.9585 228.661 32.4086C230.068 31.8635 231.458 31.2826 232.839 30.6875C234.219 30.0876 235.593 29.4782 236.957 28.845C237.639 28.5332 238.316 28.2047 238.993 27.8809C239.675 27.5572 240.352 27.231 241.019 26.8906Z" fill="#F4E8D8"/>
<path d="M229.485 31.8612L228.53 30.0164L227.553 28.1834C227.224 27.574 226.934 26.9455 226.555 26.3623C226.178 25.7791 225.782 25.203 225.312 24.665L225.267 24.6888C225.491 25.3506 225.792 25.9767 226.11 26.5909C226.426 27.2074 226.83 27.7763 227.199 28.3667L228.308 30.1306L229.44 31.8851L229.485 31.8612Z" fill="#F4E8D8"/>
<path d="M226.141 38.2334L223.039 39.1832L219.944 40.1545C218.913 40.4806 217.87 40.7686 216.86 41.1495C215.849 41.5256 214.844 41.9208 213.869 42.3897L213.886 42.435C214.955 42.2112 215.998 41.9136 217.031 41.597C218.067 41.2828 219.067 40.8781 220.083 40.5139L223.124 39.407L226.158 38.2786L226.141 38.2334Z" fill="#F4E8D8"/>
<path d="M218.065 67.2886C218.065 67.2886 235.137 81.0597 251.852 86.7705C251.852 86.7705 250.713 93.781 236.341 97.8826C236.341 97.8826 208.458 86.6871 202.554 78.4007L218.065 67.2886Z" fill="#229BC6"/>
<path d="M218.464 67.5417L219.51 71.1958C219.858 72.4146 220.217 73.6286 220.581 74.8427L221.667 78.4872C222.023 79.7036 222.407 80.9129 222.776 82.1246L222.814 82.2508L222.953 82.2746L230.264 83.5386L237.585 84.7503C240.022 85.1645 242.47 85.5287 244.913 85.9191C246.133 86.1143 247.358 86.3 248.581 86.4809C249.804 86.6642 251.029 86.8498 252.254 87.0236C251.041 86.7832 249.826 86.5547 248.611 86.3261C247.396 86.0952 246.181 85.8667 244.963 85.6501C242.528 85.2145 240.101 84.755 237.663 84.3408L230.352 83.0744L223.034 81.858L223.211 82.0079C222.824 80.801 222.453 79.5894 222.056 78.3849L220.879 74.7665C220.487 73.5596 220.093 72.3551 219.687 71.1529L218.464 67.5417Z" fill="#F4E8D8"/>
<path d="M234.65 84.54C234.506 85.6874 234.501 86.8444 234.552 87.9989C234.605 89.1534 234.723 90.3032 234.903 91.4458C235.095 92.5861 235.317 93.7239 235.63 94.838C235.926 95.9568 236.302 97.059 236.742 98.1326C236.504 96.9995 236.234 95.883 236.014 94.7571L235.845 93.9144L235.691 93.0693C235.585 92.5075 235.491 91.941 235.403 91.3768L235.269 90.5293L235.153 89.6795C235.072 89.113 235.009 88.544 234.943 87.9751C234.819 86.8324 234.713 85.6898 234.65 84.54Z" fill="#F4E8D8"/>
<path d="M221.127 76.7275C219.609 76.8989 218.095 77.0751 216.582 77.2679C215.069 77.4512 213.561 77.6488 212.048 77.8202C210.537 78.0011 209.024 78.1725 207.511 78.3201C205.995 78.4582 204.482 78.601 202.954 78.6557C204.477 78.7867 206.015 78.7676 207.541 78.6914C209.069 78.62 210.593 78.4677 212.111 78.2939C213.627 78.1106 215.14 77.894 216.643 77.6345C218.148 77.3774 219.644 77.0799 221.127 76.7275Z" fill="#F4E8D8"/>
<path d="M270.342 105.537C270.342 105.537 253.493 87.3427 249.35 77.8018C249.35 77.8018 234.855 84.2457 228.097 83.2888C228.097 83.2888 241.764 104.182 248.64 108.093L270.342 105.537Z" fill="#F6874E"/>
<path d="M270.342 105.537C270.342 105.537 253.493 87.3427 249.35 77.8018C249.35 77.8018 234.855 84.2457 228.097 83.2888C228.097 83.2888 241.764 104.182 248.64 108.093L270.342 105.537Z" fill="#F6BE4A"/>
<path d="M249.35 77.8018L246.316 93.4891L270.342 105.537" fill="#F4E8D8"/>
<path d="M249.35 77.8018L246.316 93.4891L270.342 105.537" stroke="#F4E8D8" stroke-width="2" stroke-miterlimit="10"/>
<path d="M255.921 98.6357C255.921 98.6357 249.479 102.83 248.64 108.093L255.921 98.6357Z" fill="#F4E8D8"/>
<path d="M255.921 98.6357C255.921 98.6357 249.479 102.83 248.64 108.093" stroke="#F4E8D8" stroke-width="2" stroke-miterlimit="10"/>
<path d="M247.579 88.2662C247.579 88.2662 237.505 86.2381 228.097 83.291L247.579 88.2662Z" fill="#F4E8D8"/>
<path d="M247.579 88.2662C247.579 88.2662 237.505 86.2381 228.097 83.291" stroke="#F4E8D8" stroke-width="2" stroke-miterlimit="10"/>
<path d="M278.259 117.304C278.259 117.304 274.26 115.083 264.019 111.31C263.079 110.964 260.083 108.527 256.845 108.784C245.022 109.722 242.865 114.921 240.046 114.25C238.513 113.609 237.242 106.063 236.224 103.911C234.792 100.881 236.108 95.5628 238.611 95.3985C238.611 95.3985 252.914 95.3652 256.943 96.822C260.973 98.2789 262.673 101.035 263.438 101.719C264.337 102.523 268.142 101.121 270.832 103.037C277.282 107.627 274.844 105.623 277.807 110.046C281.765 115.954 283.738 119.091 282.374 121.491C280.992 123.919 279.196 127.149 276.195 129.156C273.197 131.163 284.335 121.52 278.259 117.304Z" fill="#634874"/>
<path d="M230.821 97.4979C230.452 97.7883 232.233 99.3165 236.964 99.7093C237.823 99.7807 238.579 99.7188 238.692 99.4594C238.771 99.2808 239.031 97.8644 238.824 97.1979C238.74 96.9313 238.553 96.9623 238.286 96.9075C236.459 96.5361 235.393 96.8218 232.998 95.2292L230.821 97.4979Z" fill="#BB83C3"/>
<path d="M233.359 109.067C233.167 108.524 236.957 109.443 240.087 107.582C240.357 107.42 240.711 107.817 240.94 108.101L241.837 109.205C242.565 110.103 241.895 110.531 241.077 111.098C238.099 113.164 237.899 113.162 235.757 112.747C234.784 112.559 234.016 111.85 233.802 110.936L233.359 109.067Z" fill="#BB83C3"/>
<path d="M260.983 109.838C263.095 110.664 266.735 111.569 269.061 112.164C271.388 112.759 280.97 115.152 284.403 113.314C284.403 113.314 278.267 121.81 261.506 122.095C261.506 122.095 247.134 118.787 246.435 111.419C246.435 111.417 253.879 107.058 260.983 109.838Z" fill="#229BC6"/>
<path d="M261.503 122.093C261.549 121.117 261.566 120.139 261.582 119.163C261.594 118.184 261.587 117.208 261.574 116.23C261.551 115.251 261.531 114.275 261.465 113.295C261.448 113.049 261.43 112.804 261.402 112.554C261.39 112.428 261.375 112.307 261.344 112.166C261.314 112.035 261.276 111.912 261.231 111.788C261.046 111.297 260.796 110.855 260.473 110.431L260.417 110.357L260.319 110.34C259.498 110.205 258.679 110.083 257.856 109.983C257.032 109.876 256.209 109.788 255.38 109.719C254.554 109.648 253.723 109.6 252.889 109.593C252.472 109.593 252.056 109.6 251.641 109.626C251.227 109.653 250.808 109.703 250.411 109.819C251.229 109.691 252.058 109.745 252.879 109.805C253.7 109.872 254.521 109.964 255.337 110.067C256.971 110.279 258.606 110.529 260.228 110.802L260.074 110.712C260.351 111.083 260.591 111.512 260.751 111.943C260.788 112.052 260.824 112.162 260.849 112.269C260.872 112.369 260.889 112.488 260.902 112.607C260.93 112.842 260.953 113.085 260.97 113.326C261.039 114.294 261.094 115.268 261.142 116.242L261.304 119.165C261.369 120.143 261.428 121.119 261.503 122.093Z" fill="#F4E8D8"/>
<path d="M261.232 114.609C264.552 114.956 267.871 115.256 271.201 115.485C272.865 115.599 274.53 115.697 276.197 115.756C277.865 115.813 279.534 115.854 281.199 115.78C279.532 115.813 277.867 115.732 276.202 115.637C274.54 115.54 272.881 115.401 271.221 115.247C267.904 114.94 264.595 114.564 261.296 114.137L261.232 114.609Z" fill="#F4E8D8"/>
<path d="M257.532 109.046C257.385 109.082 257.244 109.127 257.1 109.167C256.958 109.21 256.817 109.258 256.68 109.31C256.541 109.36 256.382 109.374 256.274 109.472C256.163 109.567 256.062 109.679 256.003 109.862L256.029 109.903C256.226 109.948 256.38 109.924 256.524 109.886C256.67 109.848 256.764 109.727 256.883 109.641C256.999 109.555 257.115 109.467 257.229 109.374C257.34 109.279 257.453 109.189 257.562 109.086L257.532 109.046Z" fill="#F4E8D8"/>
<path d="M256.302 147.774C257.507 147.293 259.169 146.574 260.622 145.936C262.084 145.293 262.539 144.758 261.69 143.627L261.041 142.732C260.392 142.161 259.631 142.132 258.651 142.665L254.607 144.867C253.382 145.534 252.697 146.122 253.445 146.874L254.294 147.957C254.837 148.338 255.562 148.071 256.302 147.774Z" stroke="#866694" stroke-width="4" stroke-miterlimit="10"/>
<path d="M260.91 143.316C260.91 143.316 263.208 154.397 261.076 160.298L254.281 157.661C254.281 157.661 255.18 148.715 254.513 146.956L257.646 145.323L260.91 143.316Z" fill="#634874"/>
<path d="M261.74 143.347L254.079 147.549" stroke="#866694" stroke-width="4" stroke-miterlimit="10"/>
<path d="M338.008 124.267C336.247 124.931 333.213 135.6 331.827 139.164C331.397 140.271 311.93 129.47 310.069 128.102C306.86 125.742 307.017 124.709 307.017 124.709C307.017 124.709 315.389 120.222 323.154 116.113C326.287 114.457 339.769 123.602 338.008 124.267Z" fill="#229BC6"/>
<path opacity="0.5" d="M338.008 124.267C336.247 124.931 331.796 132.044 330.599 133.362C330.599 133.362 325.501 132.42 319.906 129.973C314.31 127.525 308.912 123.757 308.912 123.757C308.912 123.757 315.389 120.222 323.154 116.113C326.287 114.457 339.769 123.602 338.008 124.267Z" fill="#229BC6"/>
<path d="M328.813 131.089C328.813 131.089 312.262 126.111 307.33 120.469C307.33 120.469 319.656 111.84 321.77 111.84C322.753 111.84 326.07 112.695 329.76 113.811C330.526 114.042 331.306 114.285 332.087 114.532C335.623 115.658 339.132 116.906 340.981 117.777C340.981 117.777 335.229 118.736 334.095 120.579C332.329 123.45 328.813 131.089 328.813 131.089Z" fill="#F6BE4A"/>
<path opacity="0.5" d="M307.33 120.469C307.33 120.469 319.656 111.84 321.77 111.84C322.753 111.84 326.07 112.695 329.76 113.811C330.526 114.042 331.306 114.285 332.087 114.532C335.623 115.658 339.132 116.906 340.981 117.777C340.981 117.777 312.259 126.111 307.33 120.469Z" fill="#F6874E"/>
<path d="M331.748 114.273C331.933 114.461 332.087 114.694 332.107 114.937C332.125 115.185 331.912 115.361 331.678 115.456C331.443 115.551 331.17 115.613 330.907 115.677L330.106 115.861L326.885 116.539C324.736 116.994 322.588 117.456 320.456 118.006C319.923 118.146 319.393 118.291 318.865 118.448C318.339 118.601 317.822 118.751 317.291 118.882C316.235 119.148 315.164 119.367 314.088 119.57C311.931 119.958 309.755 120.274 307.568 120.522C309.771 120.45 311.971 120.25 314.154 119.924C315.245 119.762 316.331 119.558 317.407 119.308C317.945 119.189 318.481 119.036 319.011 118.886C319.532 118.734 320.06 118.594 320.59 118.458C322.71 117.915 324.849 117.429 326.984 116.915C328.05 116.656 329.118 116.401 330.179 116.113C330.445 116.039 330.71 115.97 330.975 115.889C331.238 115.804 331.501 115.732 331.763 115.604C331.89 115.535 332.011 115.451 332.102 115.332C332.193 115.216 332.233 115.063 332.211 114.923C332.155 114.647 331.953 114.44 331.748 114.273Z" fill="#F4E8D8"/>
<path d="M325.155 117.025C325.104 118.27 325.309 119.477 325.541 120.669C325.781 121.862 326.084 123.038 326.428 124.202C326.769 125.369 327.14 126.523 327.542 127.67C327.941 128.818 328.361 129.958 328.813 131.089C328.401 129.946 328.022 128.794 327.663 127.637C327.302 126.48 326.974 125.314 326.673 124.145C326.37 122.976 326.11 121.795 325.915 120.61C325.726 119.427 325.572 118.227 325.66 117.056L325.155 117.025Z" fill="#F4E8D8"/>
<path d="M321.77 111.84C318.776 111.785 330.927 109.241 333.451 114.992L321.77 111.84Z" fill="#273150"/>
<path d="M225.583 110.743C225.583 110.743 214.892 117.766 211.833 120.008C208.777 122.25 181.416 106.07 179.289 101.852C179.289 101.852 193.756 91.8801 199.185 89.4854C199.185 89.4877 202.072 105.135 225.583 110.743Z" fill="#F6BE4A"/>
<path opacity="0.5" d="M202.58 109.443C205.278 114.247 181.419 106.072 179.292 101.854C179.292 101.854 193.759 91.8823 199.188 89.4875C199.185 89.4875 199.882 104.639 202.58 109.443Z" fill="#F6874E"/>
<path d="M211.432 120.213L211.336 117.646L211.215 115.08C211.172 114.226 211.17 113.366 211.069 112.516C210.97 111.664 210.849 110.817 210.644 109.972L210.594 109.974C210.52 110.838 210.533 111.695 210.563 112.55C210.591 113.407 210.722 114.254 210.811 115.106L211.084 117.661L211.382 120.215L211.432 120.213Z" fill="#F4E8D8"/>
<path d="M179.289 101.878L183.95 101.954L188.611 102.007C190.164 102.026 191.718 102.071 193.272 102.035C194.047 102.014 194.825 101.995 195.601 101.952L196.765 101.89C197.154 101.859 197.541 101.838 197.93 101.8V101.752C197.541 101.716 197.152 101.7 196.765 101.671L195.601 101.619C194.823 101.585 194.047 101.571 193.269 101.557C191.715 101.533 190.162 101.592 188.608 101.623L183.947 101.714L179.287 101.828L179.289 101.878Z" fill="#F4E8D8"/>
<path d="M199.185 89.4875C198.528 92.9869 198.068 96.5267 197.965 100.093C197.944 100.985 197.952 101.88 198.028 102.773C198.104 103.666 198.22 104.566 198.543 105.442C198.712 105.872 198.92 106.32 199.331 106.663C199.718 106.972 200.142 107.191 200.567 107.405C201.423 107.82 202.31 108.148 203.206 108.446C205.005 109.022 206.839 109.472 208.688 109.85C209.613 110.041 210.542 110.207 211.475 110.36C212.407 110.517 213.344 110.638 214.281 110.743C218.03 111.157 221.852 111.321 225.583 110.741C224.646 110.84 223.706 110.893 222.764 110.919C221.824 110.943 220.882 110.921 219.942 110.883C218.063 110.81 216.191 110.633 214.329 110.381C210.613 109.869 206.91 109.15 203.368 107.998C202.484 107.713 201.61 107.394 200.784 107.003C200.377 106.803 199.968 106.591 199.634 106.327C199.326 106.08 199.127 105.689 198.97 105.296C198.664 104.494 198.538 103.613 198.457 102.74C198.381 101.864 198.351 100.981 198.349 100.095C198.349 98.3263 198.457 96.5528 198.609 94.7841C198.75 93.0178 198.955 91.2515 199.185 89.4875Z" fill="#F4E8D8"/>
<path d="M169.089 69.5155C163.746 67.3041 144.38 59.7936 129.809 60.6768C129.809 60.6768 117.444 66.1353 117.914 73.3624C117.914 73.3624 137.191 72.8792 142.958 74.6907C147.535 76.1285 158.688 82.5082 158.688 82.5082C158.688 82.5082 159.707 79.8897 160.568 77.6782C161.844 74.3979 166.686 72.0793 169.149 70.7891C169.692 70.5011 169.66 69.7512 169.089 69.5155Z" fill="#229BC6"/>
<path opacity="0.5" d="M129.809 60.6765C129.809 60.6765 118.173 65.8112 117.906 72.7146C117.898 72.9288 132.292 72.7146 132.292 72.7146C132.292 72.7146 131.625 65.5564 133.325 64.1448C135.026 62.7332 149.814 63.4854 149.814 63.4854C142.836 61.512 135.692 60.3194 129.809 60.6765Z" fill="#229BC6"/>
<path d="M130.16 60.7507C131.88 60.834 133.57 61.2078 135.139 61.841C136.715 62.4623 138.181 63.3121 139.545 64.2786C140.227 64.7642 140.886 65.276 141.535 65.8021C142.184 66.3282 142.813 66.8757 143.453 67.4232C143.773 67.697 144.094 67.9683 144.435 68.2302C144.607 68.3611 144.779 68.4897 144.978 68.6063C145.072 68.6682 145.186 68.7182 145.297 68.7682C145.36 68.7896 145.426 68.811 145.491 68.8277L145.658 68.8515C146.542 68.9753 147.383 69.0372 148.247 69.1157C151.68 69.3681 155.113 69.6014 158.549 69.7918L163.702 70.0584C165.423 70.1274 167.14 70.2131 168.861 70.2655C167.148 70.106 165.433 69.9751 163.72 69.8275L158.577 69.4276C155.149 69.1634 151.716 68.9348 148.29 68.6444C147.439 68.573 146.565 68.5159 145.746 68.4064L145.592 68.3873L145.479 68.3516C145.398 68.3135 145.314 68.2802 145.231 68.2254C145.062 68.1302 144.895 68.0064 144.731 67.885C144.402 67.6375 144.082 67.3708 143.761 67.1019C142.483 66.0235 141.194 64.9237 139.774 63.9858C138.362 63.0407 136.852 62.2123 135.232 61.6267C133.608 61.0554 131.885 60.7269 130.16 60.7507Z" fill="#F4E8D8"/>
<path d="M159.531 80.3179L157.945 77.5327L156.338 74.7595C155.8 73.8358 155.3 72.8932 154.709 71.9981C154.123 71.1007 153.517 70.2151 152.84 69.3677L152.797 69.3915C153.234 70.3699 153.744 71.3078 154.272 72.2362C154.797 73.1669 155.411 74.0477 155.99 74.9499L157.728 77.6518L159.489 80.3417L159.531 80.3179Z" fill="#F4E8D8"/>
<path d="M141.467 65.447L135.97 65.9469L130.478 66.5063C128.65 66.6992 126.816 66.8706 124.997 67.1491C124.087 67.2895 123.178 67.4323 122.276 67.6133C121.374 67.787 120.467 67.9751 119.591 68.2512L119.603 68.2965C121.42 68.0227 123.246 67.8442 125.07 67.6204C126.894 67.4038 128.71 67.13 130.532 66.8848L136.001 66.1826L141.472 65.4946L141.467 65.447Z" fill="#F4E8D8"/>
<path d="M90.2297 96.5361C90.2297 96.5361 89.4467 110.695 79.7437 114.087C79.7437 114.087 61.2749 117.48 47.4998 113.202C47.4998 113.202 64.276 108.665 68.7877 105.532C71.761 103.468 73.7971 101.107 73.7971 98.7476C73.7946 98.75 85.6902 98.3072 90.2297 96.5361Z" fill="#F6BE4A"/>
<path opacity="0.5" d="M79.7432 114.09C79.7432 114.09 61.2744 117.482 47.4992 113.204C47.4992 113.204 64.2755 108.667 68.7872 105.534C71.7605 103.47 73.7966 101.109 73.7966 98.75C73.794 98.75 75.8605 106.806 79.7432 114.09Z" fill="#F6874E"/>
<path d="M90.2297 96.5361C88.1911 97.8287 86.145 99.1071 84.0912 100.371C83.0605 100.997 82.0324 101.626 80.9865 102.228C79.9533 102.842 78.8822 103.387 77.7909 103.913C77.2478 104.182 76.7022 104.444 76.1565 104.723C75.6134 105.004 75.0677 105.282 74.5575 105.651C74.3074 105.844 74.0472 106.044 73.8779 106.375C73.7263 106.71 73.7465 107.041 73.7895 107.348C73.8981 107.962 74.1609 108.512 74.464 109.029C75.0728 110.062 75.8635 110.976 76.7224 111.812C77.5939 112.638 78.5311 113.397 79.5466 114.052C78.6018 113.311 77.7025 112.523 76.9042 111.652C76.0984 110.79 75.3684 109.86 74.8126 108.855C74.5423 108.353 74.3124 107.822 74.229 107.289C74.1937 107.027 74.1987 106.756 74.2973 106.556C74.3958 106.36 74.6206 106.172 74.848 106.01C75.3178 105.682 75.8534 105.406 76.3915 105.134C76.9295 104.865 77.4777 104.604 78.0233 104.339C79.1121 103.801 80.2034 103.247 81.2417 102.614C82.2774 101.985 83.303 101.347 84.311 100.683C86.3344 99.3618 88.3073 97.9811 90.2297 96.5361Z" fill="#F4E8D8"/>
<path d="M75.0471 109.074C73.7007 109.486 72.3643 109.927 71.0406 110.396C69.7144 110.857 68.4008 111.345 67.0872 111.841C65.7786 112.343 64.4701 112.85 63.1742 113.383C61.8757 113.909 60.5899 114.466 59.3142 115.049C60.6607 114.638 61.997 114.197 63.3207 113.728C64.6469 113.266 65.9605 112.776 67.2741 112.283C68.5827 111.781 69.8912 111.274 71.1846 110.741C72.4856 110.212 73.7714 109.658 75.0471 109.074Z" fill="#F4E8D8"/>
<path d="M79.5867 103.323C79.4831 102.802 79.2633 102.307 78.9981 101.843C78.8692 101.607 78.7126 101.386 78.5585 101.164C78.3918 100.95 78.2225 100.738 78.0381 100.538C77.8562 100.336 77.6491 100.152 77.4495 99.9667C77.2323 99.7977 77.0277 99.6144 76.7902 99.4692C76.338 99.1526 75.8303 98.9122 75.3048 98.7336C75.7267 99.0836 76.1536 99.3978 76.5401 99.7549C76.9342 100.102 77.3106 100.464 77.6592 100.85C78.0179 101.226 78.3488 101.628 78.6671 102.04C78.9829 102.452 79.2886 102.876 79.5867 103.323Z" fill="#F4E8D8"/>
<path d="M49.8416 47.1824C49.8416 47.1824 41.8791 42.6166 39.8026 40.0052C37.7261 37.3962 36.3418 32.1758 35.3035 26.9578C34.2653 21.7397 35.3035 15.2148 35.3035 15.2148C35.3035 15.2148 22.1498 27.9362 19.7272 29.2407C19.7272 29.2407 16.2664 39.6791 24.5724 53.0526C24.5724 53.055 37.7261 55.0118 49.8416 47.1824Z" fill="#229BC6"/>
<path opacity="0.5" d="M24.4962 42.1594C25.6784 35.8535 35.3006 26.96 35.3006 26.96C34.2623 21.7419 35.3006 15.217 35.3006 15.217C35.3006 15.217 22.1469 27.9383 19.7243 29.2429C19.7243 29.2429 16.2635 39.6813 24.5695 53.0548C24.572 53.0548 23.8975 45.3611 24.4962 42.1594Z" fill="#229BC6"/>
<path d="M49.6481 47.1468C47.5008 46.9492 45.3637 46.6731 43.2442 46.3041C41.1248 45.9423 39.0205 45.5019 36.9642 44.9115C34.918 44.314 32.8895 43.607 31.058 42.581C30.1486 42.0668 29.2897 41.4646 28.5799 40.7385C28.2136 40.36 27.8372 40.0053 27.6351 39.5959C27.5846 39.4935 27.5467 39.3888 27.5214 39.2817C27.4936 39.1769 27.4886 39.065 27.4785 38.9413C27.4659 38.6985 27.4659 38.4509 27.4785 38.2033C27.5341 37.2083 27.6881 36.2061 27.8801 35.2134C28.0721 34.2184 28.302 33.2305 28.5521 32.245C29.0523 30.2739 29.6535 28.3243 30.2825 26.3842C30.9166 24.4465 31.6113 22.5231 32.3994 20.6353C32.7885 19.6903 33.1977 18.75 33.66 17.8335C33.8899 17.3741 34.1324 16.9218 34.3976 16.4814C34.6629 16.041 34.9458 15.6077 35.2969 15.2197C34.5618 15.9696 34.0364 16.8765 33.5337 17.774C33.036 18.6786 32.5864 19.607 32.162 20.5425C31.3258 22.4207 30.5831 24.337 29.9011 26.2676C29.219 28.2005 28.6253 30.162 28.0974 32.1378C27.8372 33.1281 27.5972 34.1232 27.3951 35.1277C27.1981 36.1323 27.0212 37.1464 26.9783 38.1819C26.9682 38.4414 26.9682 38.7032 26.9833 38.9674C26.9934 39.096 27.001 39.2388 27.0389 39.3816C27.0718 39.5221 27.1223 39.6602 27.188 39.7863C27.4507 40.3029 27.8675 40.6695 28.2237 41.0385C28.9815 41.8074 29.8783 42.4215 30.8206 42.9476C32.7102 43.9903 34.769 44.6973 36.8531 45.2495C41.0364 46.3422 45.3384 46.923 49.6481 47.1468Z" fill="#F4E8D8"/>
<path d="M28.2152 32.8828L22.2661 27.3958L27.8515 33.2137L28.2152 32.8828Z" fill="#F4E8D8"/>
<path d="M34.7298 44.3569L32.3906 52.941L35.2174 44.4879L34.7298 44.3569Z" fill="#F4E8D8"/>
</svg>
