<svg width="287" height="245" viewBox="0 0 287 245" fill="none" xmlns="http://www.w3.org/2000/svg">
<path d="M253.49 65.9389C253.49 65.9389 261.344 27.2167 229.157 16.157C196.97 5.09725 175.487 12.2333 168.002 14.3852C160.517 16.537 116.876 42.7621 143.281 73.4042C143.281 73.4042 137.099 70.2583 134.285 72.6419C131.471 75.0254 131.474 75.0256 131.474 75.0256C131.474 75.0256 118.246 72.1624 107.441 79.8253C96.6346 87.4909 102.503 90.3052 104.751 91.9943C106.999 93.6835 105.332 93.6008 105.332 93.6008C105.332 93.6008 85.3916 97.0287 78.1006 101.713C70.8096 106.398 64.4663 112.078 90.3461 110.206C116.226 108.335 129.4 106.152 129.4 106.152C129.4 106.152 106.071 110.357 105.825 114.762C105.579 119.166 160.885 111.814 171.689 110.143C182.492 108.472 232.423 95.4906 242.613 92.8435C242.613 92.8435 233.6 98.3882 240.61 98.7359C247.62 99.0837 277.521 85.1118 281.684 82.479C285.848 79.8463 273.11 80.16 273.11 80.16C273.11 80.16 275.885 72.4121 272.178 66.8658C268.472 61.3196 256.005 62.9082 253.49 65.9389Z" fill="#F3E7D9"/>
<path d="M91.2429 62.2084C91.2429 62.2084 94.381 53.8039 86.7464 49.8409C81.705 47.2258 71.163 53.1688 71.6714 59.0277C71.8924 61.559 68.4376 56.9736 62.5168 61.0968C56.5959 65.22 56.7024 72.3206 56.7024 72.3206C56.7024 72.3206 43.9653 75.6316 42.243 76.4917C40.5208 77.3517 38.3966 79.4562 51.9583 76.3414C65.5226 73.2351 91.2429 62.2084 91.2429 62.2084Z" fill="#F3E7D9"/>
<path d="M53.2046 130.237C53.2046 130.237 51.4992 124.79 40.7307 125.833C29.9622 126.877 25.5 134.857 27.114 135.882C28.7309 136.908 29.0126 137.87 29.0126 137.87C29.0126 137.87 13.3063 143.399 7.15642 145.617C1.00651 147.835 6.82265 151.593 18.7527 147.77C30.683 143.945 61.3036 135.055 72.4066 134.028C83.5097 133.001 53.2046 130.237 53.2046 130.237Z" fill="#F3E7D9"/>
<path d="M115.76 178.562C94.5372 184.402 91.9978 193.832 91.9978 193.832C91.9978 193.832 48.8454 200.373 38.9198 204.45C28.9941 208.527 15.0497 215.919 34.0085 222.938C46.8345 227.687 78.4143 235.191 107.17 232.505C135.925 229.819 154.621 228.139 162.526 223.894C170.43 219.652 163.551 213.477 163.551 213.477C163.551 213.477 180.893 215.98 205.657 216.923C230.421 217.866 244.618 212.562 233.158 207.686C233.158 207.686 294.817 193.156 263.592 181.441C258.591 179.822 246.816 169.3 206.221 166.945C165.626 164.59 145.305 170.432 115.76 178.562Z" fill="#856792"/>
<path d="M163.385 184.799C163.385 184.799 134.022 190.28 138.811 194.407C143.6 198.534 161.795 198.956 161.795 198.956C161.795 198.956 169.356 207.666 184.072 207.428C198.788 207.189 208.982 206.772 218.005 203.954C227.028 201.136 264.05 194.368 231.68 188.15C199.309 181.933 163.385 184.799 163.385 184.799Z" fill="#4B3355"/>
<path d="M153.262 175.748C136.143 178.201 133.044 180.98 145.245 184.478C157.446 187.976 162.361 185.288 170.713 181.61C179.068 177.932 170.384 173.293 153.262 175.748Z" fill="#4B3355"/>
<path d="M144.586 200.666C138.859 199.01 133.289 203.303 144.867 204.334C156.445 205.366 150.31 202.318 144.586 200.666Z" fill="#4B3355"/>
<path d="M117.808 206.989C117.808 206.989 117.064 207.053 115.905 207.171C111.043 207.661 98.8417 209.054 103.072 210.37C108.315 212.002 128.724 211.185 122.106 208.116" fill="#4B3355"/>
<path d="M91.8194 199.437C91.8194 199.437 54.3565 202.673 48.4927 206.257C42.6289 209.841 64.593 213.727 64.593 213.727C64.593 213.727 72.0371 215.632 82.44 215.29C92.8429 214.948 125.891 209.402 116.983 205.184C110.088 201.915 91.8194 199.437 91.8194 199.437Z" fill="#4B3355"/>
<path d="M136.129 216.257C136.129 216.257 115.004 214.021 118.671 218.888C122.337 223.755 153.253 219.94 136.129 216.257Z" fill="#4B3355"/>
<path d="M144.097 231.137C140.335 232.643 131.609 237.827 150.942 238.786C170.275 239.745 175.127 228.106 170.459 227.875C165.794 227.643 147.856 229.632 144.097 231.137Z" fill="#856792"/>
<path d="M170.95 154.313C170.95 154.313 120.331 157.472 110.81 160.37C101.288 163.267 87.7907 172.151 110.985 175.842C134.179 179.535 146.913 184.318 157.525 180.493C168.138 176.667 160.84 167.691 160.84 167.691C160.84 167.691 179.428 170.098 192.022 168.058C204.619 166.013 208.112 150.023 170.95 154.313Z" fill="#856792"/>
<path d="M199.333 205.704C197.205 206.208 195.21 210.069 200.53 210.332C205.849 210.596 211.475 209.12 209.437 207.119C206.983 204.712 201.463 205.2 199.333 205.704Z" fill="#4B3355"/>
<path d="M175.396 217.612C175.396 217.612 170.891 220.129 176.185 220.849C181.479 221.569 181.683 217.924 175.396 217.612Z" fill="#856792"/>
<path d="M177.666 224.255C175.588 226.018 174.068 228.672 181.346 229.321C188.623 229.969 189.253 224.113 186.841 223.706C184.423 223.298 179.745 222.493 177.666 224.255Z" fill="#856792"/>
<path d="M222.313 202.274C222.313 202.274 222.364 204.255 226.41 204.154C230.456 204.05 235.062 202.605 235.062 202.605C235.062 202.605 238.913 203.1 241.915 201.42C244.917 199.74 242.034 196.4 233.56 197.656C225.086 198.909 221.226 201.458 222.313 202.274Z" fill="#4B3355"/>
<path d="M175.268 161.295C175.268 161.295 163.339 160.017 166.777 163.614C170.212 167.214 185.271 164.534 175.268 161.295Z" fill="#4B3355"/>
<path d="M176.199 144.577L174.978 160.973L172.788 162.315L170.103 165.93C170.103 165.93 170.247 168.824 169.685 173.417C169.123 178.009 168.173 184.024 168.173 184.024L205.528 200.892L220.161 202.196L233.031 201.285L254.916 191.406L249.945 173.647L249.542 169.873L244.781 167.328L247.965 165.178L246.728 143.463L194.529 140.008L176.199 144.577Z" fill="#7A462F"/>
<path d="M246.732 143.455L220.985 132.65L192.424 133.832L176.199 144.576C176.199 144.576 178.53 146.713 183.419 146.955C188.308 147.198 209.856 150.866 209.856 150.866L225.762 151.367C225.762 151.367 238.546 147.381 242.262 146.699C245.978 146.017 246.732 143.455 246.732 143.455Z" fill="#A96443"/>
<path d="M241.66 194.4L232.575 183.442L232.424 168.815L227.868 154.881L228.225 165.863L230.871 170.564L229.649 183.754L229.598 193.344L220.164 202.193L233.39 194.904L232.32 187.998L238.2 195.6L241.66 194.4Z" fill="#A96443"/>
<path d="M216.036 149.725L214.712 156.057L208.809 148.912L216.036 149.725Z" fill="#A96443"/>
<path d="M234.611 146.991L237.743 151.716L240.516 145.458L234.611 146.991Z" fill="#A96443"/>
<path d="M213.085 141.811L210.895 154.953L215.349 162.027L214.382 170.66L212.805 164.187L208.504 154.378L213.085 141.811Z" fill="#A96443"/>
<path d="M217.284 162.123L216.699 172.602L220.335 185.575L220.463 191.977L222.448 182.483L219.624 172.292L217.284 162.123Z" fill="#A96443"/>
<path d="M220.592 163.659L219.65 171.836L221.277 177.398L221.378 166.895L222.982 159.894L220.592 163.659Z" fill="#A96443"/>
<path d="M176.072 162.136L173.941 169.874L175.3 177.403L174.188 182.829L176.426 177.459L175.045 170.383L176.072 162.136Z" fill="#A96443"/>
<path d="M240.847 148.215C240.847 148.215 239.956 155.48 239.879 156.848C239.803 158.216 239.027 172.111 239.027 172.111L244.624 184.725L243.337 173.011L254.916 191.403L249.542 169.87L244.781 167.325L247.965 165.174L247.128 148.529L245.211 152.543L244.486 161.189L243.098 155.636L243.607 150.863L240.847 148.215Z" fill="#A96443"/>
<path d="M238.294 200.4C239.636 200.238 242.155 196.366 236.95 189.71C234.792 186.953 234.577 194.181 235.34 196.827C236.106 199.473 236.952 200.562 238.294 200.4Z" fill="#33A86D"/>
<path d="M240.123 196.771C240.123 196.771 238.659 189.369 240.049 189.525C244.228 189.992 242.571 192.529 242.571 192.529C242.571 192.529 248.658 187.519 249.617 189.492C250.576 191.467 246.583 194.21 246.583 194.21C246.583 194.21 257.043 188.336 251.837 192.969C246.633 197.602 239.153 200.259 240.123 196.771Z" fill="#33A86D"/>
<path d="M235.707 179.485C235.707 179.485 237.312 185.503 238.964 181.93C240.619 178.357 239.804 175.576 235.707 179.485Z" fill="#33A86D"/>
<path d="M248.202 181.477C248.202 181.477 251.307 177.975 247.922 177.808C244.537 177.64 246.317 180.469 248.202 181.477Z" fill="#33A86D"/>
<path d="M236.827 150.756C236.827 150.756 237.566 154.906 234.713 153.849C231.86 152.793 232.067 149.151 236.827 150.756Z" fill="#33A86D"/>
<path d="M235.91 158.477C235.91 158.477 242.754 157.445 239.447 155.912C236.139 154.376 233.086 156.968 235.91 158.477Z" fill="#33A86D"/>
<path d="M239.345 166.415C239.345 166.415 243.926 162.53 239.599 161.858C235.273 161.189 234.535 165.719 239.345 166.415Z" fill="#33A86D"/>
<path d="M230.514 159.581C230.514 159.581 230.692 165.074 232.726 163.346C234.761 161.618 234.992 157.52 230.514 159.581Z" fill="#33A86D"/>
<path d="M212.141 204.474C212.141 204.474 209.299 199.427 212.195 197.282C215.092 195.134 212.141 204.474 212.141 204.474Z" fill="#288453"/>
<path d="M210.252 203.35C209.419 204.527 203.972 192.073 206.891 191.874C209.811 191.674 211.087 202.175 210.252 203.35Z" fill="#288453"/>
<path d="M204.961 201.872C204.266 200.581 203.861 194.05 206.213 196.831C207.94 198.878 208.378 199.298 208.74 202.212C209.101 205.122 205.655 203.162 204.961 201.872Z" fill="#288453"/>
<path d="M168.69 185.754C168.69 185.754 168.193 177.277 165.242 178.045C162.291 178.813 165.458 182.853 165.458 182.853C165.458 182.853 161.31 178.993 162.342 182.242C163.373 185.49 168.69 185.754 168.69 185.754Z" fill="#33A86D"/>
<path d="M171.552 186.582C171.552 186.582 174.006 181.677 171.615 181.101C169.225 180.525 169.54 183.51 169.54 183.51C169.54 183.51 167.646 178.389 167.264 180.885C166.882 183.378 168.232 185.274 169.884 186.042C171.539 186.81 171.539 186.81 171.539 186.81" fill="#288453"/>
<path d="M99.6132 226.759C99.6132 226.759 95.7958 216.977 97.8397 219.475C99.8804 221.975 100.53 223.379 100.53 223.379C100.53 223.379 100.129 217.533 102.591 219.027C105.053 220.521 103.392 224.206 103.392 224.206C103.392 224.206 107.554 221.328 107.801 223.398C108.047 225.467 102.456 227.928 99.6132 226.759Z" fill="#33A86D"/>
<path d="M76.182 227.426C76.182 227.426 72.957 220.069 75.5338 219.514C78.1107 218.956 78.5692 223.777 78.5692 223.777C78.5692 223.777 78.7042 214.873 81.9657 215.035C85.2272 215.197 81.8882 222.911 81.8882 222.911C81.8882 222.911 83.0708 221.257 84.7883 223.055C86.5058 224.853 85.2468 227.876 85.2468 227.876C85.2468 227.876 89.0064 225.663 91.0883 227.48C93.1672 229.296 90.9547 229.872 90.9547 229.872C90.9547 229.872 97.9215 228.846 97.4617 230.536C97.0049 232.227 91.1252 233.307 85.7627 231.669C80.4002 230.031 68.3749 230.465 69.6179 227.783C70.8577 225.104 76.182 227.426 76.182 227.426Z" fill="#33A86D"/>
<path d="M36.2577 210.547C36.2577 210.547 30.3991 204.064 35.2984 199.946L36.4165 204.272C36.4165 204.272 38.675 198.852 41.453 197.161L38.1556 205.095C38.1556 205.095 40.3455 201.17 43.0586 200.159C45.7715 199.151 36.2577 210.547 36.2577 210.547Z" fill="#856792"/>
<path d="M33.671 210.204C33.671 210.204 27.7369 206.037 21.121 205.232C21.121 205.232 25.8218 203.97 28.7042 205.021C31.5865 206.073 31.4531 208.248 31.4531 208.248L30.3999 203.243C30.3999 203.243 36.2042 208.766 36.2545 210.547C36.3048 212.327 33.671 210.204 33.671 210.204Z" fill="#856792"/>
<path d="M259.478 182.869C259.478 182.869 257.763 174.853 260.759 172.636L260.582 177.053C260.582 177.053 262.539 172.736 264.133 172.081L261.27 178.402C261.27 178.402 262.95 175.463 264.401 175.422C265.853 175.381 259.478 182.869 259.478 182.869Z" fill="#856792"/>
<path d="M258.31 181.685C258.31 181.685 256.182 175.813 253.178 172.856C253.178 172.856 255.613 173.242 256.807 175.187C258.001 177.131 257.582 179.12 257.582 179.12L257.902 174.09C257.902 174.09 259.749 181.186 259.481 182.869C259.213 184.552 258.31 181.685 258.31 181.685Z" fill="#856792"/>
<path d="M145.092 179.114C145.031 179.131 144.97 179.153 144.912 179.181C144.027 179.583 135.616 180.724 134.745 181.629C134.033 182.367 134.013 185.668 134.163 186.946C134.21 187.343 134.488 187.679 134.887 187.823C136.51 188.417 138.797 189.781 142.868 189.76C148.264 189.731 149.351 189.472 153.45 187.871C156.135 186.825 160.293 185.911 161.109 185.567C161.498 185.403 161.685 185.057 161.728 184.667L162.183 180.385C162.24 179.849 161.94 179.363 161.369 179.236C158.724 178.653 151.312 177.314 145.092 179.114Z" fill="#29ABE2"/>
<path d="M148.097 177.603C148.097 177.603 135.604 180.303 134.691 181.189C133.779 182.075 134.157 185.763 134.157 185.763C134.157 185.763 137.589 187.982 142.938 187.767C148.308 187.551 149.532 187.886 153.602 186.437C156.759 185.312 160.978 184.423 161.587 184.182C161.75 184.117 161.859 183.987 161.876 183.836L162.294 180.052C162.332 179.706 162.071 179.386 161.675 179.296C159.332 178.77 154.567 175.878 148.097 177.603Z" fill="#121721"/>
<path d="M140.597 179.845C140.597 179.845 143.992 179.505 146.402 181.668" stroke="#29ABE2" stroke-width="2" stroke-miterlimit="10" stroke-linecap="round" stroke-linejoin="round"/>
<path d="M142.973 178.921C142.973 178.921 145.41 178.661 149.312 181.138" stroke="#29ABE2" stroke-width="2" stroke-miterlimit="10" stroke-linecap="round" stroke-linejoin="round"/>
<path d="M191.896 119.152C191.896 119.152 170.605 113.679 162.378 112.487C157.845 111.83 155.669 112.987 154.13 115.38C152.589 117.77 152.471 126.209 156.83 128.762C161.189 131.315 168.313 131.547 173.962 133.681C179.609 135.813 187.606 140.635 192.497 138.639C197.389 136.644 204.65 124.978 191.896 119.152Z" fill="#CE9436"/>
<path d="M191.896 119.153L182.317 116.914L163.715 131.062C163.715 131.062 171.469 132.739 173.959 133.681C179.605 135.813 187.602 140.635 192.494 138.639C197.388 136.644 198.777 119.341 191.896 119.153Z" fill="#F7BC4B"/>
<path d="M164.506 147.321C164.506 147.321 164.49 127.386 165.169 123.124C165.85 118.862 165.736 112.811 157.657 112.086C152.188 111.595 148.957 112.284 148.287 118.494C147.753 123.443 146.937 127.481 147.446 132.64C148.131 139.56 146.922 171.082 145.817 172.145C144.712 173.208 144.63 172.755 144.605 175.443C144.586 177.613 146.578 177.932 151.876 179.106C155.14 179.655 158.356 181.922 161.133 180.465C163.91 179.009 163.324 177.811 163.324 177.811L163.328 175.113L164.506 147.321Z" fill="#CE9436"/>
<path d="M164.506 147.321C164.506 147.321 167.948 128.221 168.629 123.959C169.31 119.697 157.306 145.764 157.941 148.539C158.58 151.314 158.625 156.941 158.625 156.941L156.76 154.241C156.76 154.241 153.73 172.035 153.705 174.726C153.686 176.895 146.574 177.937 151.873 179.108C155.137 179.657 158.353 181.925 161.13 180.468C163.906 179.011 163.32 177.814 163.32 177.814L163.324 175.116L164.506 147.321Z" fill="#F7BC4B"/>
<path d="M230.397 124.091C230.397 124.091 234.401 133.428 232.644 138.822C230.887 144.218 229.599 144.154 222.854 143.363C216.692 142.639 180.943 137.818 187.983 125.337C193.894 114.857 202.498 117.223 211.92 119.214C221.345 121.206 230.397 124.091 230.397 124.091Z" fill="#F7BC4B"/>
<path d="M189.573 82.4626C189.573 82.4626 183.72 86.3296 182.929 91.7007C182.138 97.0718 178.224 102.79 176.738 104.563C175.253 106.335 171.424 112.735 177.281 116.677C183.137 120.62 185.779 112.516 188.266 109.024C190.752 105.531 194.258 102.383 196.281 97.1073C198.304 91.8283 200.858 79.1417 189.573 82.4626Z" fill="#7A462F"/>
<path d="M182.27 113.31C182.27 113.31 183.537 117.324 178.631 121.187C173.725 125.05 165.532 131.098 163.397 132.748C161.262 134.398 158.396 133.598 156.474 131.651C154.552 129.701 156.622 127.004 161.903 121.585C167.183 116.166 173.029 108.773 177.868 107.235C182.707 105.697 182.27 113.31 182.27 113.31Z" fill="#7A462F"/>
<path d="M169.434 124.721C170.371 124.074 183.537 117.324 178.631 121.187C173.725 125.05 165.531 131.098 163.397 132.748C161.262 134.397 159.924 130.038 161.958 128.313C163.992 126.588 165.979 127.102 169.434 124.721Z" fill="#A96443"/>
<path d="M158.725 127.377C157.73 127.065 156.15 127.418 153.981 127.918C152.342 128.293 149.833 128.398 148.126 128.542C145.445 128.767 145.502 127.802 143.664 128.854C142.739 129.384 143.139 130.758 143.698 131.139C145.023 132.043 149.009 131.569 149.519 131.808C150.03 132.048 146.219 135.554 146.04 135.818C145.86 136.083 141.396 137.885 140.426 138.464C139.456 139.042 140.119 139.569 140.503 139.93C140.887 140.29 142.316 140.339 142.316 140.339C142.316 140.339 140.939 140.869 141.856 141.876C142.776 142.887 143.488 142.79 144.1 142.501C144.712 142.213 145.63 142.021 145.63 142.021C145.63 142.021 145.349 143.297 146.728 143.487C148.108 143.677 148.668 143.295 148.668 143.295C148.668 143.295 148.873 143.921 150.021 144.282C151.168 144.644 151.296 144.284 153.414 143.105C155.531 141.925 158.415 140.268 159.257 139.57C160.098 138.872 163.288 133.462 162.752 131.852C162.222 130.237 159.72 127.689 158.725 127.377Z" fill="#7A462F"/>
<path d="M160.238 130.206C159.243 129.894 156.307 128.95 154.141 129.447C152.502 129.822 149.543 129.295 147.84 129.439C145.158 129.664 145.801 128.347 143.963 129.399C143.038 129.929 143.148 130.756 143.704 131.139C145.029 132.043 149.014 131.569 149.525 131.808C150.036 132.048 146.225 135.554 146.046 135.819C145.866 136.083 141.402 137.886 140.432 138.464C139.462 139.043 140.125 139.569 140.509 139.93C140.893 140.29 142.65 139.881 142.65 139.881C142.65 139.881 140.944 140.869 141.861 141.879C142.781 142.89 143.474 142.18 144.143 142.049C145.082 141.867 145.781 141.673 145.781 141.673C145.781 141.673 145.019 143.258 146.734 143.49C147.772 143.629 149.873 142.361 149.873 142.361C149.873 142.361 148.834 143.052 149.473 143.569C150.462 144.369 151.11 143.707 153.227 142.528C155.345 141.349 157.87 139.414 158.711 138.716C159.553 138.018 162.366 133.343 161.83 131.733C161.294 130.12 161.233 130.518 160.238 130.206Z" fill="#A96443"/>
<path d="M148.461 137.085C148.461 137.085 151.068 138.89 152.136 139.285C153.204 139.679 153.955 140.021 153.955 140.021C153.955 140.021 149.894 137.497 149.658 137.373C149.422 137.248 148.146 136.231 148.146 136.231L148.461 137.085Z" fill="#7A462F"/>
<path d="M148.87 142.939L151.656 141.336L153.555 139.889C153.555 139.889 152.921 140.687 151.727 141.517C151.001 142.02 149.733 142.559 148.87 142.939Z" fill="#7A462F"/>
<path d="M145.773 141.786L148.617 140.025C148.617 140.025 150.369 138.791 151.369 138.485L149.101 140.049L145.773 141.786Z" fill="#7A462F"/>
<path d="M142.234 140.049L146.319 138.539L148.476 136.817C148.476 136.817 146.502 138.167 146.166 138.379C145.831 138.591 141.624 140.132 141.624 140.132L142.234 140.049Z" fill="#7A462F"/>
<path d="M209.561 77.5981C199.035 77.9904 194.102 79.4956 191.623 80.4395C189.148 81.3835 189.586 82.1673 189.586 82.1673C189.586 82.1673 189.951 90.1048 190.274 93.0137C190.597 95.9226 191.423 103.169 191.638 106.939C191.873 111.085 194.985 118.64 194.603 121.136C194.141 124.161 195.635 128.725 195.635 128.725C195.635 128.725 204.858 127.088 211.261 128.168C217.664 129.248 230.698 127.379 231.352 127.259C232.005 127.14 231.534 125.44 231.619 123.923C231.704 122.403 231.593 120.038 231.593 120.038C231.593 120.038 230.697 106.441 230.867 103.401C231.036 100.364 232.493 83.9963 231.366 80.7343C230.667 78.7212 220.086 77.2057 209.561 77.5981Z" fill="#29ABE2"/>
<path d="M227.365 101.706C227.365 101.706 227.658 106.595 227.463 110.088C227.267 113.58 229.004 117.245 228.138 119.714C227.272 122.183 226.508 127.172 226.508 127.172" stroke="#1689CB" stroke-miterlimit="10"/>
<path d="M216.589 77.6249C217.556 77.6729 216.682 82.4444 215.332 84.2062C213.981 85.9681 208.301 88.5792 203.94 88.5154C199.263 88.4471 196.988 86.9202 198.757 82.9269C199.682 80.8419 200.293 78.5862 201.92 78.3621C203.55 78.1381 204.707 78.0064 208.475 77.849C212.242 77.6915 215.621 77.5769 216.589 77.6249Z" fill="#7A462F"/>
<path d="M211.012 82.4484C214.706 81.7454 214.502 81.6901 214.261 79.8973L213.62 71.4804C213.43 70.0542 211.794 69.1065 209.493 69.5428L204.613 70.3139C202.379 70.7366 201.429 72.1429 201.389 73.5634C201.389 73.5634 201.693 79.5844 202.153 81.4784C202.618 83.3952 207.316 83.1513 211.012 82.4484Z" fill="#A96443"/>
<path d="M210.788 82.7176C202.888 78.4112 201.426 72.1437 201.386 73.5613C201.386 73.5613 201.466 79.8506 201.926 81.7446C202.397 83.6645 207.091 83.4233 210.788 82.7176Z" fill="#7A462F"/>
<path d="M190.907 96.1665L191.521 100.775C191.521 100.775 205.56 102.947 223.691 101.676L222.89 96.497C222.887 96.4969 209.923 98.0242 190.907 96.1665Z" fill="#3E4C6F"/>
<path d="M223.69 103.846C223.69 103.846 207.439 104.869 191.764 103.177L192.34 107.355C192.34 107.355 197.608 108.53 205.478 108.768C213.347 109.006 224.551 108.001 224.551 108.001L223.69 103.846Z" fill="#3E4C6F"/>
<path d="M215.811 60.5139C217.02 74.2988 214.303 73.1847 208.336 73.9555C203.343 74.6025 198.565 69.4237 197.69 62.5672C196.815 55.7107 200.161 49.693 205.165 49.1255C210.168 48.558 215.068 52.0411 215.811 60.5139Z" fill="#273252"/>
<path d="M212.756 58.9596C211.919 52.6526 210.756 49.1235 203.478 49.4483C199.68 49.6183 196.014 50.3791 193.968 51.7255C192.118 52.9433 191.119 54.621 190.947 58.8403C190.817 62.0202 190.762 67.4985 192.493 72.5968C193.605 75.8637 198.199 76.6165 202.145 76.4228C212.131 75.9359 213.534 74.7835 213.569 68.0483C213.602 61.7167 213.099 61.5478 212.756 58.9596Z" fill="#7A462F"/>
<path d="M211.578 52.328C209.478 48.5295 203.379 52.833 206.036 53.8933C209.95 55.4591 208.508 63.9646 207.57 69.1224C206.537 74.7977 203.009 76.0338 203.009 76.0338C203.009 76.0338 204.9 76.1756 207.159 75.726C210.836 74.994 213.409 75.1978 213.398 66.815C213.395 62.793 212.87 54.6613 211.578 52.328Z" fill="#A96443"/>
<path d="M192.403 51.7557C191.843 52.1682 191.124 55.7733 190.977 58.0211C190.948 58.4938 191.553 55.0693 192.277 54.2782C192.277 54.2782 194.392 54.8601 196.847 54.6545C201.406 54.2738 205.498 53.3507 205.498 53.3507C205.498 53.3507 207.074 58.2692 208.504 59.8528C209.97 61.4779 211.735 62.3218 211.735 62.3218L213.717 58.8075C213.311 54.0572 211.448 50.0474 208.02 49.375C201.745 48.1465 194.458 50.2376 192.403 51.7557Z" fill="#273252"/>
<path d="M203.136 62.9395C203.139 63.8882 202.672 64.0005 202.163 64.0006C201.653 64.0036 201.285 63.895 201.269 62.9457C201.253 61.9879 201.663 61.2008 202.184 61.1985C202.705 61.1989 203.132 61.9823 203.136 62.9395Z" fill="#1D2538"/>
<path d="M200.633 58.031C200.633 58.031 202.703 57.7667 203.627 58.6594" stroke="#1D2538" stroke-miterlimit="10" stroke-linecap="round" stroke-linejoin="round"/>
<path d="M195.705 63.4205C195.748 64.3091 195.337 64.3762 194.858 64.3778C194.378 64.3795 194.004 64.3157 193.952 63.4267C193.898 62.5291 194.25 61.7901 194.739 61.7889C195.227 61.7849 195.66 62.5205 195.705 63.4205Z" fill="#1D2538"/>
<path d="M195.456 58.7227C195.456 58.7227 193.937 58.2408 192.587 59.4471" stroke="#1D2538" stroke-miterlimit="10" stroke-linecap="round" stroke-linejoin="round"/>
<path d="M216.394 63.3116C215.759 65.5747 213.869 67.1263 212.154 66.8437C212.154 66.8437 212.137 61.6696 212.1 60.6827C212.074 60.0634 212.471 58.1611 214.299 58.4634C216.121 58.7655 217.049 60.9706 216.394 63.3116Z" fill="#A96443"/>
<path d="M215.299 65.6593C215.199 66.2726 214.572 66.7214 213.904 66.6657C213.236 66.6099 212.766 66.0672 212.857 65.4535C212.949 64.8341 213.574 64.3739 214.254 64.4302C214.933 64.4865 215.403 65.0406 215.299 65.6593Z" fill="#F3E7D9"/>
<path d="M203.26 135.233C203.26 135.233 203.395 139.682 199.312 139.759C199.312 139.759 203.083 136.15 203.26 135.233Z" fill="#CE9436"/>
<path d="M184.36 188.877C178.941 190.406 171.063 191.824 170.621 194.001C170.179 196.164 169.848 198.456 170.032 199.278C170.174 199.9 170.45 200.278 170.968 200.495C172.284 201.049 174.91 202.362 180.262 202.994C182.571 203.267 187.667 202.275 190.795 200.279C193.273 198.7 196.235 196.872 197.343 196.187C197.631 196.01 197.826 195.734 197.883 195.418L198.33 192.991C198.421 192.495 198.155 191.994 197.668 191.753C195.384 190.615 188.761 187.633 184.36 188.877Z" fill="#29ABE2"/>
<path d="M184.714 186.777C179.992 188.042 171.006 190.96 170.583 193.118C170.201 195.066 170.025 196.141 170.069 196.894C170.091 197.262 171.178 197.471 171.706 197.672C173.049 198.182 175.726 199.387 181.16 200.01C183.502 200.278 188.113 199.864 191.267 198.104C193.885 196.645 197.038 194.944 198.017 194.417C198.211 194.311 198.346 194.145 198.39 193.953L198.803 192.074C198.98 191.267 198.913 187.752 197.969 187.438C194.535 186.291 188.898 185.655 184.714 186.777Z" fill="#121721"/>
<path d="M185.063 192.482C185.063 192.482 180.798 188.737 175.806 189.959" stroke="#29ABE2" stroke-width="2" stroke-miterlimit="10" stroke-linecap="round" stroke-linejoin="round"/>
<path d="M188.14 190.856C188.14 190.856 183.681 187.454 178.705 188.672" stroke="#29ABE2" stroke-width="2" stroke-miterlimit="10" stroke-linecap="round" stroke-linejoin="round"/>
<path d="M192.482 189.11C192.482 189.11 190.714 189.333 186.826 189.027C182.934 188.724 182.72 187.514 181.725 186.945C180.729 186.377 178.407 188.598 179.594 182.615C180.782 176.631 179.868 174.232 179.641 172.719C179.414 171.206 178.972 172.96 179.245 168.229C179.518 163.498 180.035 159.764 180.081 153.521C180.128 147.277 180.214 127.334 181.065 124.714C181.918 122.092 201.167 123.964 202.344 128.637C203.52 133.31 201.553 138.674 200.839 140.831C200.125 142.989 200.656 149.416 199.811 153.715C199.339 156.107 198.926 163.281 199.123 171.343C199.319 179.405 199.77 182.277 200.292 183.17C200.814 184.062 199.977 186.987 199.546 188.221C199.12 189.459 192.482 189.11 192.482 189.11Z" fill="#F7BC4B"/>
<path d="M231.842 128.579C231.46 126.731 231.059 127.967 216.748 125.395C205.673 123.403 190.833 117.714 188.247 123.524C185.662 129.334 216.384 131.924 223.466 132.428C230.551 132.932 232.224 130.427 231.842 128.579Z" fill="#F7BC4B"/>
<path d="M190.995 135.082C190.995 135.082 185.183 132.053 185.896 127.977C186.618 123.838 197.146 122.825 202.292 122.318C193.029 118.89 181.918 122.098 181.064 124.72C180.211 127.342 180.127 147.286 180.081 153.526C180.035 159.77 179.518 163.504 179.245 168.234C178.968 172.965 179.411 171.212 179.641 172.725C179.871 174.237 180.782 176.636 179.594 182.62C178.406 188.604 180.729 186.382 181.724 186.951C182.72 187.519 182.934 188.73 186.825 189.033C190.717 189.336 192.481 189.116 192.481 189.116C192.481 189.116 199.12 189.462 199.548 188.227C199.977 186.993 200.817 184.068 200.295 183.176C200.013 182.693 194.975 177.284 190.309 172.145L190.686 173.436L190.712 178.376C190.712 178.376 188.846 174.084 188.186 172.502C187.719 171.381 186.832 169.023 186.35 167.737C184.138 165.234 182.513 163.294 182.346 162.797C182.073 161.993 182.271 132.341 185.223 134.186C188.664 136.338 190.995 135.082 190.995 135.082Z" fill="#CE9436"/>
<path d="M229.868 80.053C228.399 80.0394 225.522 79.1516 223.688 84.3158C221.854 89.48 224.897 102.193 227.809 101.426C230.721 100.659 230.664 93.8005 231.54 89.9604C232.417 86.1176 231.778 80.0715 229.868 80.053Z" fill="#7A462F"/>
<path d="M229.868 80.0501C228.175 79.7432 227.469 81.077 226.31 82.9979C224.491 86.0207 225.393 93.2963 228.285 92.8894C231.177 92.4825 231.431 86.5004 232.221 84.2027C233.011 81.9051 232.187 80.4728 229.868 80.0501Z" fill="#A96443"/>
<path d="M239.18 95.5918C239.18 95.5918 237.915 92.1789 235.97 87.9703C234.025 83.7617 232.866 79.8969 229.915 80.665C226.964 81.433 225.469 85.7758 225.036 89.1807C224.604 92.5855 226.11 96.0103 228.663 99.487C230.711 102.275 232.757 110.807 235.617 114.604C239.189 119.348 242.301 122.245 245.825 119.908C249.349 117.571 247.531 111.083 245.111 106.622C242.692 102.161 239.18 95.5918 239.18 95.5918Z" fill="#A96443"/>
<path d="M227.445 93.0284C224.588 89.4293 226.107 84.433 226.107 84.433C226.107 84.433 225.186 85.7589 224.753 89.1637C224.32 92.5686 225.827 95.9934 228.379 99.4701C230.428 102.259 232.757 110.804 235.615 114.601C235.615 114.601 243.994 113.589 241.494 112.779C239.114 112.009 237.688 112.604 237.08 111.532C235.893 109.45 231.994 100.601 231.994 100.601C231.994 100.601 229.709 95.884 227.445 93.0284Z" fill="#7A462F"/>
<path d="M244.258 113.204C244.258 113.204 242.215 112.36 236.806 113.692C231.398 115.024 233.887 116.573 223.902 120.647C218.787 122.733 221.987 127.1 228.818 126.298C235.65 125.494 241.216 124.249 244.79 121C248.365 117.748 248.722 115.711 244.258 113.204Z" fill="#A96443"/>
<path d="M234.587 117.065C236.083 115.917 238.538 114.159 239.236 113.412C239.777 112.832 239.168 113.013 236.802 113.596C231.394 114.928 233.89 116.573 223.904 120.647C218.786 122.733 231.927 119.103 234.587 117.065Z" fill="#7A462F"/>
<path d="M224.865 121.838C224.117 121.298 219.673 119.297 217.028 118.937C214.382 118.577 211.441 119.117 211.441 119.117L206.007 120.902C206.007 120.902 204.092 122.636 203.57 123.293C203.048 123.953 203.921 124.623 203.921 124.623C203.921 124.623 205.733 125.797 206.117 125.474C206.497 125.151 206.497 125.151 206.497 125.151C206.497 125.151 207.408 126.224 208.127 126.375C208.847 126.524 209.698 126.453 209.698 126.453C209.698 126.453 211.589 127.346 212.918 127.412C214.247 127.478 215.565 125.601 216.907 125.439C218.249 125.277 219.294 127.214 221.839 127.225C224.384 127.238 227.079 123.432 224.865 121.838Z" fill="#A96443"/>
<path d="M223.221 120.985C221.486 120.197 218.838 119.182 217.028 118.937C214.382 118.577 211.441 119.117 211.441 119.117L206.007 120.902C206.007 120.902 204.092 122.636 203.57 123.293C203.048 123.953 203.921 124.623 203.921 124.623C203.921 124.623 205.733 125.797 206.117 125.474C206.497 125.151 206.497 125.151 206.497 125.151C206.497 125.151 207.408 126.224 208.127 126.375C208.847 126.524 209.698 126.453 209.698 126.453L210.308 124.923L218.209 120.898C218.212 120.898 224.024 121.35 223.221 120.985Z" fill="#7A462F"/>
<path d="M117.572 163.581C117.572 163.581 119.222 168.684 120.361 169.9L121.756 167.344C121.753 167.344 120.183 164.664 117.572 163.581Z" fill="#992C29"/>
<path d="M118.256 165.762C118.256 165.762 117.21 169.905 117.558 171.404L119.857 170.82C119.854 170.82 119.835 168.166 118.256 165.762Z" fill="#992C29"/>
<path d="M60.9567 182.411C60.9567 182.411 58.7045 193.563 59.1052 196.256C59.5029 198.949 58.3399 202.289 57.0944 203.997C56.4035 205.052 58.4153 209.196 58.4153 209.196C58.4153 209.196 61.8268 210.319 65.2185 209.384C68.1844 208.566 67.5669 206.912 65.7684 206.027C63.9555 205.133 68.6771 198.136 68.6771 198.136C68.6771 198.136 72.6109 185.995 72.9267 184.148C73.2424 182.304 63.0774 176.403 60.9567 182.411Z" fill="#1D2538"/>
<path d="M114.453 166.183C111.502 166.624 96.6409 165.167 95.7031 159.651C95.0113 155.575 93.5231 151.011 93.3287 147.575C93.3287 147.575 91.8779 145.076 90.6446 142.063C89.406 139.035 90.0488 138.573 91.8284 139.474C93.5936 140.366 96.8435 143.578 96.8435 143.578C96.8435 143.578 101.351 140.849 107.4 140.644C113.266 140.447 111.802 142.265 113.852 144.927L115.302 147.327C115.302 147.327 119.665 145.359 122.493 145.192C125.278 145.028 126.171 146.15 127.186 149.102C128.235 152.148 128.275 152.455 127.502 154.175C126.725 155.903 124.127 159.088 121.326 161.407C121.336 161.402 117.361 165.749 114.453 166.183Z" fill="#1D2538"/>
<path d="M114.453 166.183C111.502 166.624 108.256 169.342 107.321 163.826C106.629 159.75 107.211 153.101 107.211 153.101C107.211 153.101 101.36 140.844 107.409 140.639C113.276 140.442 113.595 142.027 115.117 144.484L116.084 146.951C116.084 146.951 119.674 145.351 122.502 145.187C125.288 145.023 126.18 146.145 127.195 149.097C128.244 152.143 128.284 152.45 127.511 154.17C126.735 155.898 124.137 159.083 121.336 161.402C121.336 161.402 117.361 165.749 114.453 166.183Z" fill="#273252"/>
<path d="M126.142 146.397C127.135 147.765 124.962 149.144 123.96 147.774C122.953 146.394 119.994 145.754 121.769 145.232C122.996 144.875 125.147 145.024 126.142 146.397Z" fill="#121721"/>
<path d="M104.14 142.605C104.14 142.605 103.696 138.598 103.794 135.617C103.89 132.771 105.492 133.313 106.97 135.695C108.511 138.176 110.601 142.908 110.968 143.849C111.338 144.791 105.593 145.923 104.14 142.605Z" fill="#273252"/>
<path d="M105.746 136.264C105.314 133.389 105.849 134.271 107.327 136.65C108.866 139.125 108.729 139.598 109.099 140.542C109.465 141.483 106.131 138.823 105.746 136.264Z" fill="#1D2538"/>
<path d="M107.421 200.38C107.064 199.273 104.951 199.137 104.879 198.86C103.662 194.165 103.527 189.448 103.385 188.343C103.093 186.073 104.654 181.762 104.062 176.873C103.49 172.159 94.9105 176.258 95.4481 181.861C95.7585 185.097 97.5285 196.037 98.0394 199.009C98.1119 199.427 98.2782 199.828 98.5306 200.187L100.963 202.645C101.508 203.564 102.712 203.293 104.915 202.784C107.09 202.283 107.906 201.883 107.421 200.38Z" fill="#273252"/>
<path d="M122.526 206.85C122.401 203.987 118.679 203.868 118.679 203.868C118.482 203.483 117.793 202.737 117.74 202.354C117.327 199.443 117.872 192.79 117.807 191.502C117.669 188.823 118.397 180.767 118.212 174.594C118.025 168.393 109.756 173.266 109.375 179.388C109.105 183.747 112.074 201.265 112.348 202.95C112.348 202.95 116.263 208.845 118.332 208.75C120.377 208.657 122.604 208.615 122.526 206.85Z" fill="#273252"/>
<path d="M95.594 161.664C94.2276 164.195 95.0802 165.392 91.6529 166.376C83.8574 168.617 77.5302 168.809 68.7375 170.726C63.001 171.977 58.8503 183.23 61.1136 186.517C63.3799 189.805 73.1906 189.716 79.0924 193.762C85.2827 198.006 92.5841 193.565 96.653 192.034C100.722 190.503 111.319 184.21 113.97 181.9C114.927 181.067 115.43 178.664 116.16 176.152C117.217 172.513 119.016 168.357 116.691 164.872C115.119 162.508 96.9602 159.135 95.594 161.664Z" fill="#1D2538"/>
<path d="M110.403 166.525L106.294 172.998C106.294 172.998 101.701 178.923 102.075 178.928L105.986 186.124C105.986 186.124 111.323 184.207 113.971 181.897C114.928 181.064 117.006 179.135 117.737 176.62C118.793 172.981 118.411 170.012 117.784 164.785L110.403 166.525Z" fill="#273252"/>
<path d="M95.6578 160.513C95.6578 160.513 95.0006 161.234 95.0221 162.778C95.0221 162.778 100.096 164.695 109.862 166.495C114.818 167.41 118.666 166.886 118.666 166.886L118.432 164.053C118.432 164.055 106.721 165.394 95.6578 160.513Z" fill="#992C29"/>
<path d="M70.0579 174.545C69.2434 173.362 67.9354 174.152 64.8809 168.514C61.8264 162.876 61.1372 153.822 65.5488 151.035C65.5488 151.035 60.9082 149.664 56.8867 158.014C52.7739 166.551 62.3046 176.783 63.1853 177.583C67.078 181.137 72.3735 177.914 70.0579 174.545Z" fill="#273252"/>
<path d="M70.5244 174.878C69.7045 173.686 66.7901 178.139 62.2778 169.539C59.9039 165.015 58.7987 153.917 65.5637 151.035C65.5637 151.035 58.3293 149.666 55.9324 158.634C52.832 170.227 62.2922 177.001 63.1785 177.81C67.1051 181.4 72.8624 178.277 70.5244 174.878Z" fill="#1D2538"/>
<path d="M73.5742 185.8C73.5742 185.8 76.7601 200.507 78.3674 202.777C79.9664 205.035 81.1091 208.386 80.6235 210.269C80.1374 212.162 83.8155 214.624 83.8155 214.624C83.8155 214.624 88.7642 214.339 89.5922 214.101C90.4172 213.862 92.1471 210.88 89.9764 210.654C87.7818 210.427 86.9817 201.48 86.9817 201.48C86.9817 201.48 86.9925 185.577 86.4863 183.807C85.98 182.041 72.9697 179.68 73.5742 185.8Z" fill="#1D2538"/>
<path d="M114.544 147.3C114.87 147.2 114.888 146.399 114.582 145.51C114.277 144.622 113.764 143.982 113.437 144.082C113.11 144.182 113.093 144.983 113.398 145.872C113.704 146.76 114.217 147.4 114.544 147.3Z" fill="#121721"/>
<path d="M124.037 157.727C124.037 157.727 119.721 157.513 119.561 160.748C119.55 160.995 119.675 161.236 119.888 161.382L122.831 163.379C122.831 163.379 128.598 170.061 129.528 170.793C130.457 171.525 134.138 173.609 136.83 170.24C139.242 167.224 138.153 161.74 135.646 161.043L124.037 157.727Z" fill="#F5894E"/>
<path d="M129.26 168.341C128.52 166.317 130.162 162.538 133.757 162.321C137.892 162.069 137.842 168.007 136.147 169.989C134.064 172.429 130.453 171.6 129.26 168.341Z" fill="#FFFCF3"/>
<path d="M129.527 166.452L131.419 168.03C131.419 168.03 131.16 167.729 131.353 166.314C131.48 165.383 132.355 164.407 134.286 163.719L132.442 163.113C132.442 163.113 130.13 163.284 129.527 166.452Z" fill="#F5894E"/>
<path d="M128.866 169.616C128.866 169.616 135.095 172.361 135.74 166.607C135.852 165.614 134.445 163.726 132.199 164.148C129.687 164.619 132.05 163.227 132.611 163.254C133.173 163.282 137.578 164.043 136.277 167.814C135.023 171.446 131.798 171.224 130.143 170.555C129.405 170.256 128.866 169.616 128.866 169.616Z" fill="#F5894E"/>
<path d="M125.274 158.017C125.274 158.017 121.137 157.213 121.241 162.386" stroke="#F7BC4B" stroke-miterlimit="10" stroke-linecap="round" stroke-linejoin="round"/>
<path d="M125.131 158.351C125.131 158.351 127.968 155.293 125.862 156.104C123.756 156.914 125.131 158.351 125.131 158.351Z" stroke="#F7BC4B" stroke-miterlimit="10"/>
<path d="M125.273 158.017C125.273 158.017 128.04 156.212 129.041 157.862C130.042 159.512 126.897 159.356 126.3 159.211C125.7 159.065 125.273 158.017 125.273 158.017Z" stroke="#F7BC4B" stroke-miterlimit="10"/>
<path d="M125.274 158.017C125.274 158.017 124.221 157.88 122.882 159.069C121.993 159.858 121.107 162.094 121.597 162.548" stroke="#F7BC4B" stroke-miterlimit="10" stroke-linecap="round" stroke-linejoin="round"/>
</svg>
