<svg width="287" height="195" viewBox="0 0 287 195" fill="none" xmlns="http://www.w3.org/2000/svg">
<path d="M82.2135 88.9736C82.2135 88.9736 31.5962 128.344 19.1412 135.158C6.68615 141.971 -4.56045 126.072 1.86763 112.442C8.29571 98.8133 16.7319 97.6793 16.7319 97.6793C16.7319 97.6793 -0.945287 69.6651 22.7589 47.7082C46.4631 25.7514 71.7692 21.9667 75.788 32.9451C75.788 32.9451 93.4348 11.383 128.416 3.03855C160.153 -4.53319 159.35 9.09594 141.673 25.7538C141.673 25.7538 153.725 20.0744 159.351 21.9691C164.971 23.8614 82.2135 88.9736 82.2135 88.9736Z" fill="#F4E8D8"/>
<path d="M230.052 86.3252C230.052 86.3252 127.609 134.024 119.576 138.947C111.541 143.868 109.132 145.004 109.533 148.411C109.934 151.818 125.2 144.626 125.2 144.626C125.2 144.626 113.95 156.361 144.484 151.062C175.015 145.763 212.377 136.677 247.328 116.234C282.279 95.7916 290.314 92.0069 285.894 84.4352C281.474 76.8635 267.816 78.3778 260.184 81.7845C252.553 85.1912 272.637 73.4568 264.604 72.3204C256.566 71.1817 230.052 86.3252 230.052 86.3252Z" fill="#F4E8D8"/>
<path d="M168.787 49.7919C168.787 49.7919 168.787 41.2752 151.915 37.8662C135.042 34.4571 135.042 41.8422 136.248 48.0886C137.454 54.335 147.096 58.311 148.904 58.311C150.711 58.311 168.787 49.7919 168.787 49.7919Z" fill="#48598B"/>
<path d="M146.893 93.5168C146.893 93.5168 142.072 104.117 150.107 110.553C158.142 116.988 172.202 119.639 185.058 110.553C197.914 101.467 166.578 71.9403 146.893 93.5168Z" fill="#273150"/>
<path d="M156.131 52.4426C156.131 52.4426 171.245 35.6078 189.475 39.5719C210.366 44.1149 217.797 55.2823 221.413 72.3181C221.413 72.3181 232.862 67.2081 236.477 83.1076C240.093 99.007 218.399 106.39 205.746 105.823C193.093 105.253 156.131 52.4426 156.131 52.4426Z" fill="#48598B"/>
<path d="M152.115 54.9045C152.115 54.9045 167.228 38.0697 185.459 42.0338C206.35 46.5768 213.781 57.7442 217.396 74.7801C217.396 74.7801 228.846 69.67 232.461 85.5695C236.076 101.469 214.383 108.852 201.727 108.285C189.074 107.713 152.115 54.9045 152.115 54.9045Z" fill="#273150"/>
<path d="M141.47 75.3469C141.47 75.3469 132.432 81.0263 128.814 72.5072C125.197 63.9881 139.058 56.6077 144.481 57.1747C149.906 57.7441 148.099 67.9641 141.47 75.3469Z" fill="#273150"/>
<path d="M166.779 51.4975C166.779 51.4975 166.779 42.9808 149.906 39.5717C133.034 36.1626 133.034 43.5478 134.24 49.7942C135.446 56.0406 145.088 60.0166 146.895 60.0166C148.7 60.0142 166.779 51.4975 166.779 51.4975Z" fill="#273150"/>
<path d="M163.364 118.882C163.364 118.882 151.514 130.428 144.885 137.811C138.784 144.602 124.999 150.492 122.991 159.578C120.983 168.665 142.072 171.504 148.5 165.447C154.928 159.389 176.221 135.162 179.435 128.727C182.646 122.289 174.21 109.038 163.364 118.882Z" fill="#CE6D3E"/>
<path d="M185.058 115.095C185.058 115.095 178.63 110.552 174.613 110.93C170.597 111.308 158.947 123.234 158.947 123.234C158.947 123.234 163.567 123.423 166.581 126.074C169.594 128.724 173.41 136.863 173.41 136.863C173.41 136.863 189.478 119.638 185.058 115.095Z" fill="#C93F37"/>
<path d="M171.801 165.825C171.801 165.825 158.744 156.803 147.162 154.215C137.101 151.968 132.232 151.564 127.01 154.215C121.788 156.865 117.769 164.626 122.389 166.33C127.007 168.033 171.801 165.825 171.801 165.825Z" fill="#F6874E"/>
<path d="M232.461 172.26C232.461 172.26 234.068 148.033 231.659 132.89C229.25 117.746 225.632 106.39 218.001 101.847C210.367 97.3037 196.307 104.497 185.863 108.66C177.345 112.055 173.811 127.966 168.186 137.052C163.375 144.825 159.749 152.196 171.801 165.823C183.852 179.449 225.632 196.866 232.461 172.26Z" fill="#D09435"/>
<path d="M232.462 172.26C232.462 172.26 234.069 148.033 231.66 132.89C229.25 117.746 225.633 106.39 218.001 101.847C210.367 97.3036 219.207 132.131 211.573 146.519C206.618 155.858 202.332 165.825 213.581 173.775C228.641 184.418 225.633 196.865 232.462 172.26Z" fill="#F6BE4A"/>
<path d="M167.783 99.5739C181.771 114.985 185.46 121.153 185.46 121.153C185.46 121.153 199.923 120.775 199.52 111.689C199.116 102.603 194.006 101.112 187.869 92.7605C180.639 82.9185 163.112 94.428 167.783 99.5739Z" fill="#F6874E"/>
<path d="M167.782 99.574C174.611 107.713 184.855 107.146 184.855 107.146C184.855 107.146 203.535 110.268 187.868 92.7606C179.681 83.6076 163.11 94.4281 167.782 99.574Z" fill="#CE6D3E"/>
<path d="M157.238 50.8349C157.238 50.8349 143.069 49.6602 139.662 70.2367C135.242 96.9256 142.072 107.148 169.792 104.308C197.513 101.469 198.114 84.6218 196.307 72.6984C194.499 60.7702 173.506 46.8588 157.238 50.8349Z" fill="#F6874E"/>
<path d="M157.238 50.8346C157.238 50.8346 143.069 49.66 139.662 70.2364C135.242 96.9253 142.072 107.148 169.792 104.308C169.792 104.308 157.136 91.4373 155.329 79.5115C153.521 67.5857 176.22 50.4877 157.238 50.8346Z" fill="#CE6D3E"/>
<path d="M142.272 61.7652C142.272 61.7652 147.819 50.4854 164.971 53.2007C177.525 55.1887 190.983 67.2078 190.983 67.2078L196.307 62.8537C196.307 62.8537 184.651 45.8753 160.551 48.5619C147.395 50.0284 143.729 57.2222 142.272 61.7652Z" fill="#F6BE4A"/>
<path d="M142.272 61.7654C142.272 61.7654 147.819 50.4855 164.971 53.2008L160.551 48.5645C147.395 50.0286 143.729 57.2223 142.272 61.7654Z" fill="#D09435"/>
<path d="M201.128 75.3467C194.499 75.3467 189.478 82.1601 187.871 90.1098C186.441 97.1863 184.857 106.009 207.155 105.442C229.45 104.875 213.781 75.3467 201.128 75.3467Z" fill="#273150"/>
<path d="M191.082 83.2963C195.132 83.2963 198.414 78.9103 198.414 73.4997C198.414 68.0892 195.132 63.7031 191.082 63.7031C187.033 63.7031 183.75 68.0892 183.75 73.4997C183.75 78.9103 187.033 83.2963 191.082 83.2963Z" fill="#F6874E"/>
<path d="M163.09 70.2569C164.435 69.9372 165.062 67.9519 164.492 65.8228C163.922 63.6936 162.37 62.2268 161.025 62.5465C159.681 62.8663 159.053 64.8515 159.623 66.9807C160.194 69.1098 161.746 70.5767 163.09 70.2569Z" fill="#263052"/>
<path d="M148.24 74.0982C148.375 72.3018 147.565 70.7841 146.431 70.7084C145.296 70.6326 144.267 72.0275 144.132 73.8238C143.997 75.6202 144.807 77.1378 145.941 77.2136C147.076 77.2893 148.105 75.8945 148.24 74.0982Z" fill="#263052"/>
<path d="M143.009 70.0452L147.629 70.361" stroke="#273150" stroke-width="2" stroke-miterlimit="10"/>
<path d="M154.392 63.0429C154.392 63.0429 155.664 60.2032 157.941 60.0764" stroke="#273150" stroke-width="2" stroke-miterlimit="10"/>
<path d="M184.611 59.0692C184.611 59.0692 191.643 67.1218 198.855 70.5716C204.309 73.1816 208.678 73.6625 208.678 73.6625L207.586 71.605L210.303 69.6314C210.303 69.6314 200.11 68.6266 186.736 57.8611L184.611 59.0692Z" fill="#C93F37"/>
<path d="M183.897 58.1293C183.897 58.1293 187.578 67.9641 193.1 73.5335C197.276 77.744 201.206 79.6076 201.206 79.6076L200.93 77.323L204.197 76.3469C204.197 76.3469 194.986 72.1124 186.332 57.6819L183.897 58.1293Z" fill="#C93F37"/>
<path d="M188.368 63.3252C190.968 62.8946 193.441 49.8181 187.251 49.5429C181.425 49.2822 174.819 49.9831 175.916 54.1219C177.015 58.2606 185.771 63.7558 188.368 63.3252Z" fill="#C93F37"/>
<path d="M190.612 55.8876C190.612 55.8876 189.655 50.28 187.81 50.4044C185.961 50.5288 187.614 52.9235 188.091 56.6173C188.569 60.311 190.947 58.2536 190.612 55.8876Z" fill="#F7BC4B"/>
<path d="M186.21 60.6148C186.21 60.6148 185.819 58.0334 189.81 55.5358C193.801 53.0382 196.837 51.677 199.376 53.1602C201.915 54.6435 202.793 61.1674 201.344 64.4568C199.894 67.7439 191.013 65.2463 188.777 64.0095C186.54 62.7726 186.21 60.6148 186.21 60.6148Z" fill="#C93F37"/>
<path d="M200.737 58.4307C200.737 58.4307 201.572 63.6628 199.089 64.5192C195.4 65.7895 197.726 55.8805 197.942 54.3135C198.157 52.7465 201.402 54.6819 200.737 58.4307Z" fill="#F7BC4B"/>
<path d="M121.282 115.665C121.282 115.665 123.691 107.43 122.488 103.172C121.282 98.9138 120.68 97.4927 116.461 95.2224C112.242 92.9521 107.723 93.2344 108.327 88.6913C108.929 84.1483 110.134 86.421 115.859 87.2727C121.584 88.1243 121.493 91.4545 126.405 93.2344C130.322 94.653 135.443 96.9257 138.157 102.887C140.868 108.849 148.401 113.677 141.772 117.935C135.141 122.194 121.884 120.206 121.282 115.665Z" fill="#F6874E"/>
<path d="M187.466 110.174C187.466 110.174 178.225 128.724 175.415 136.296C172.602 143.868 176.217 148.031 182.645 151.44C189.073 154.846 196.705 156.172 203.133 144.057C209.561 131.942 215.184 123.803 212.775 117.746C210.366 111.689 195.501 99.5739 187.466 110.174Z" fill="#F6874E"/>
<path d="M187.466 110.174C187.466 110.174 178.225 128.724 175.415 136.296C172.602 143.868 176.217 148.031 182.645 151.44C189.073 154.846 189.073 149.925 195.501 137.811C201.93 125.696 215.187 123.803 212.775 117.746C210.363 111.689 195.501 99.5739 187.466 110.174Z" fill="#CE6D3E"/>
<path d="M187.065 111.311C187.065 111.311 194.699 94.2749 197.109 90.8682C199.518 87.4615 204.743 85.1888 210.366 87.0835C215.989 88.9759 218.802 101.847 218.802 106.77C218.802 111.691 211.168 126.457 210.767 129.485C210.366 132.514 209.561 118.507 201.526 113.964C193.491 109.421 187.065 111.311 187.065 111.311Z" fill="#C93F37"/>
<path d="M197.109 90.8682C199.518 87.4615 204.743 85.1888 210.366 87.0835C215.99 88.9759 218.802 101.847 218.802 106.77C218.802 111.691 211.169 126.457 210.767 129.485C210.366 132.514 213.177 101.471 209.965 97.306C205.401 91.3897 197.109 90.8682 197.109 90.8682Z" fill="#EE5D4F"/>
<path d="M198.47 139.205C198.47 139.205 194.067 123.849 179.025 124.452C163.983 125.055 170.587 147.937 185.629 149.744C200.671 151.55 198.47 139.205 198.47 139.205Z" fill="#CE6D3E"/>
<path d="M198.716 141.974C198.716 141.974 193.895 123.677 177.423 124.433C160.952 125.189 151.714 118.502 144.882 116.23C139.619 114.478 130.52 121.909 138.555 127.586C146.59 133.265 168.182 152.95 184.654 155.222C201.125 157.495 198.716 141.974 198.716 141.974Z" fill="#F6874E"/>
<path d="M126.405 111.973C126.405 111.973 116.463 108.282 115.258 107.43C114.052 106.579 113.45 102.603 109.533 102.603C105.615 102.603 108.931 106.579 109.231 108.849C109.533 111.119 112.422 113.26 114.554 116.043C115.859 117.746 117.266 120.87 121.285 122.478C128.038 125.181 135.446 127.588 140.868 125.885C146.291 124.181 135.745 109.985 126.405 111.973Z" fill="#F6874E"/>
<path d="M132.028 102.476C132.028 102.476 133.034 113.959 134.841 114.811C136.649 115.662 141.168 116.229 141.168 116.229C141.168 116.229 135.443 119.636 132.732 116.229C130.02 112.825 132.028 102.476 132.028 102.476Z" fill="#CE6D3E"/>
<path d="M125.339 96.483C124.714 95.7772 122.465 94.9519 120.089 96.0117C117.715 97.0715 117.715 97.3083 117.839 99.5452C117.964 101.782 117.839 106.375 118.588 107.083C119.337 107.789 121.713 108.615 123.087 107.083C124.46 105.552 125.087 102.844 125.087 100.605C125.09 98.3658 125.963 97.1887 125.339 96.483Z" fill="#F6874E"/>
<path d="M128.111 95.0955C127.441 94.3395 125.032 93.4544 122.488 94.5907C119.944 95.7271 119.944 95.9783 120.079 98.3754C120.213 100.773 120.079 105.694 120.881 106.452C121.683 107.208 124.229 108.093 125.702 106.452C127.174 104.811 127.845 101.909 127.845 99.5117C127.845 97.1146 128.781 95.8515 128.111 95.0955Z" fill="#CE6D3E"/>
<path d="M128.916 95.0955C128.245 94.3395 125.836 93.4544 123.292 94.5907C120.748 95.7271 120.748 95.9783 120.883 98.3754C121.018 100.773 120.883 105.694 121.685 106.452C122.487 107.208 125.034 108.093 126.506 106.452C127.979 104.811 128.649 101.909 128.649 99.5117C128.649 97.1146 129.583 95.8515 128.916 95.0955Z" fill="#F6874E"/>
<path d="M127.04 95.7891C124.93 96.3561 122.82 102.602 122.82 104.306C122.82 106.009 124.562 107.808 128.276 107.902C131.693 107.988 130.218 102.854 130.218 102.854C130.218 102.854 129.149 95.2198 127.04 95.7891Z" fill="#CE6D3E"/>
<path d="M145.085 116.799C145.085 116.799 144.684 107.713 143.78 105.442C142.876 103.172 139.261 100.899 135.042 98.629C130.822 96.3587 130.221 95.2223 128.111 95.7893C126.001 96.3563 123.892 102.603 123.892 104.306C123.892 106.009 124.694 106.768 128.411 106.861C131.828 106.947 131.289 102.854 131.289 102.854C131.289 102.854 132.627 104.306 132.93 108.847C133.232 113.387 134.338 120.205 145.085 116.799Z" fill="#F6874E"/>
<path d="M51.8833 154.624L67.7504 154.088L91.5536 153.992L97.2785 152.763L64.5364 151.059L51.8833 154.624Z" fill="#634874"/>
<path d="M57.4402 86.9876L73.9115 88.7843L103.437 77.6169L103.658 76.27L89.1769 72.6025L57.4402 86.9876Z" fill="#634874"/>
<path d="M31.5934 52.7749L40.3901 48.1744L40.644 48.1696L51.7027 42.33H51.9566L62.929 36.385L102.901 50.172V63.0428L63.3327 51.2749L31.5934 66.4973V52.7749Z" fill="#29ACE4"/>
<path d="M63.3327 51.1481L31.5934 66.4973V52.7749L40.3927 48.1696H40.644L51.7027 42.33H51.9566L62.929 36.385" fill="#48598B"/>
<path d="M31.5934 66.4974L76.9911 73.7366L102.901 63.0429L63.3327 51.1482L51.9744 56.6386L51.7103 56.6314L40.6491 62.0764L40.3876 62.074L31.5934 66.4974Z" fill="#634874"/>
<path d="M42.4414 126.638L64.8584 129.421L101.294 121.48L87.5852 117.48L42.4414 126.638Z" fill="#634874"/>
<path d="M65.7417 90.3945L51.2125 83.7366L61.7254 76.9543L103.505 87.8084L65.7417 90.3945Z" fill="#634874"/>
<path d="M31.1923 100.995V114.055L65.4754 116.61L100.492 109.227L92.3581 101.657L102.701 99.3847L80.2051 86.0403L63.1296 87.9326L31.1923 100.995Z" fill="#634874"/>
<path d="M31.5934 67.208L62.929 51.7798L77.7095 56.1793L77.7933 64.4951L91.4619 60.2702L103.64 63.8946V76.7653L63.3327 66.5453L31.5934 80.9304V67.208Z" fill="#29ACE4"/>
<path d="M63.3327 66.5453L31.5934 80.9304V67.208L62.929 51.7798" fill="#48598B"/>
<path d="M77.8032 64.495L91.454 60.2988V73.7366L77.7931 76.3562L77.8032 64.495Z" fill="#48598B"/>
<path d="M31.5934 80.9303L45.79 81.5284L77.8111 70.2126L63.3327 66.5452L31.5934 80.9303Z" fill="#634874"/>
<path d="M51.2125 72.9806V83.7366L63.2639 78.9734V67.4902L51.2125 72.9806Z" fill="#48598B"/>
<path d="M103.506 77.0189V87.8083L63.2642 79.038V67.4902L103.506 77.0189Z" fill="#29ACE4"/>
<path d="M31.1923 91.9088V101.593L63.1296 90.2365V79.416L31.1923 91.9088Z" fill="#48598B"/>
<path d="M63.1294 79.416V90.2365L76.2877 93.2341V82.4447L63.1294 79.416Z" fill="#29ACE4"/>
<path d="M89.8802 85.4087L89.5781 96.5761L102.701 99.3847V88.313L89.8802 85.4087Z" fill="#29ACE4"/>
<path d="M31.2253 102.414V114.055L42.6751 109.227V98.1553L31.2253 102.414Z" fill="#48598B"/>
<path d="M51.4133 95.5045V106.294L63.1296 102.414V91.0571L51.4133 95.5045Z" fill="#48598B"/>
<path d="M63.1294 91.0571L100.492 99.8585V109.227L63.1294 102.414V91.0571Z" fill="#29ACE4"/>
<path d="M53.9597 128.457V117.701L87.4583 107.531V119.437L53.9597 128.457Z" fill="#48598B"/>
<path d="M87.415 107.536V119.414L101.294 121.497V110.117L87.415 107.536Z" fill="#29ACE4"/>
<path d="M29.8033 134.045L67.6204 139.815L89.6871 134.097L54.1168 126.236L29.8033 134.045Z" fill="#634874"/>
<path d="M40.3747 117.449L40.1056 131.485L63.8301 134.899L64.084 120.813L40.3747 117.449Z" fill="#29ACE4"/>
<path d="M41.0298 131.054L51.2304 128.528L69.9282 130.294L56.8106 132.846L41.0298 131.054Z" fill="#634874"/>
<path d="M30.0547 120.935L29.8033 134.045L40.2502 131.533L40.5194 117.438L30.0547 120.935Z" fill="#48598B"/>
<path d="M41.3446 117.514L41.0298 131.054L51.233 128.581L51.4361 114.478L41.3446 117.514Z" fill="#48598B"/>
<path d="M51.4055 114.492L51.177 128.679L89.7633 134.097L89.9714 122.152L51.4055 114.492Z" fill="#29ACE4"/>
<path d="M103.036 144.813L86.2295 149.26L60.2379 147.81L90.883 143.141L103.036 144.813Z" fill="#634874"/>
<path d="M90.8833 131.578L103.036 133.16V144.813L90.8833 143.141V131.578Z" fill="#29ACE4"/>
<path d="M90.9339 131.595V143.141L70.8982 146.832V136.169L90.9339 131.595Z" fill="#48598B"/>
<path d="M77.6084 141.732L46.8617 147.779L31.9974 146.801L59.6316 139.095L77.6084 141.732Z" fill="#634874"/>
<path d="M64.0009 128.138V139.739L31.9976 146.801V135.916L64.0009 128.138Z" fill="#48598B"/>
<path d="M64.0006 128.138V139.739L77.5575 141.803V130.239L64.0006 128.138Z" fill="#29ACE4"/>
<path d="M101.163 155.791L74.5135 160.966L56.2346 156.203L89.7789 149.799L101.163 155.791Z" fill="#634874"/>
<path d="M51.8833 143.518V154.624L64.5948 151.849V140.334L51.8833 143.518Z" fill="#48598B"/>
<path d="M101.162 145.884V155.791L62.7971 152.415V140.901L101.162 145.884Z" fill="#29ACE4"/>
<path d="M33.2692 157.212V168.442H64.0006L79.101 165.791L79.0324 154.94L64.3357 153.332L33.2692 157.212Z" fill="#48598B"/>
<path d="M60.5199 159.04V169.305H88.6059L102.407 166.882L102.346 156.963L88.9131 155.494L60.5199 159.04Z" fill="#48598B"/>
<path d="M89.1875 155.466V167.143L102.468 166.923V156.59L89.1875 155.466Z" fill="#29ACE4"/>
<path d="M64.6377 153.299V166.076L79.1669 165.834V154.531L64.6377 153.299Z" fill="#29ACE4"/>
<path d="M40.5173 48.1697V62.0715" stroke="#29ACE4" stroke-miterlimit="10"/>
<path d="M51.8325 42.3301V56.6315" stroke="#29ACE4" stroke-miterlimit="10"/>
<path d="M89.8803 85.4087L76.3209 88.4685V94.1335L87.2857 96.734L89.5782 96.5761L89.8803 85.4087Z" fill="#48598B"/>
<path d="M263.797 191.188C263.058 190.002 234.873 165.067 167.782 164.311C113.417 163.698 31.594 165.825 13.5156 171.504C13.5156 171.504 67.5501 168.665 101.295 176.236C135.04 183.808 157.421 188.124 173.809 190.054C186.665 191.569 210.1 193.588 215.723 193.966C242.208 195.748 213.076 184.703 242.406 189.77C260.484 192.892 264.65 192.559 263.797 191.188Z" fill="#866694"/>
<path d="M94.6661 178.696C94.6661 178.696 76.5878 172.26 46.0569 174.153C9.61588 176.411 0.336792 171.808 0.336792 171.808C0.336792 171.808 10.38 185.665 33.9471 181.808C65.9251 176.578 94.6661 178.696 94.6661 178.696Z" fill="#866694"/>
</svg>
