<?xml version="1.0" encoding="iso-8859-1"?>
<!-- Uploaded to: SVG Repo, www.svgrepo.com, Generator: SVG Repo Mixer Tools -->
<svg height="800px" width="800px" version="1.1" id="Layer_1" xmlns="http://www.w3.org/2000/svg" xmlns:xlink="http://www.w3.org/1999/xlink" 
	 viewBox="0 0 512.001 512.001" xml:space="preserve">
<path style="fill:#9A7863;" d="M276.281,133.779h-40.562c-8.599,0-15.938,6.218-17.352,14.7l-59.121,354.726h193.509
	l-59.121-354.726C292.22,139.997,284.881,133.779,276.281,133.779z"/>
<path style="fill:#8C695C;" d="M272.959,133.779H235.72c-8.6,0-15.939,6.216-17.352,14.7l-59.121,354.726h61.571l40.31-354.726
	C262.09,139.997,267.095,133.779,272.959,133.779z"/>
<g>
	<path style="fill:#E4EAF8;" d="M224.903,226.483L88.071,363.315l24.878,24.878c3.435,3.436,9.004,3.436,12.438,0l124.393-124.392
		c3.435-3.436,3.435-9.005,0-12.44L224.903,226.483z"/>
	<path style="fill:#E4EAF8;" d="M423.93,27.456L399.052,2.577c-3.435-3.436-9.004-3.436-12.438,0L262.22,126.969
		c-3.435,3.436-3.435,9.005,0,12.44l24.878,24.878L423.93,27.456z"/>
	<path style="fill:#E4EAF8;" d="M200.025,189.166l24.878-24.878L88.071,27.456L63.193,52.334c-3.436,3.435-3.436,9.004,0,12.438
		l124.392,124.392C191.02,192.6,196.59,192.6,200.025,189.166z"/>
	<path style="fill:#E4EAF8;" d="M448.809,325.997L324.417,201.604c-3.436-3.435-9.005-3.435-12.44,0l-24.878,24.878l136.832,136.832
		l24.878-24.878C452.243,335.001,452.243,329.432,448.809,325.997z"/>
</g>
<g>
	<path style="fill:#5B5D6E;" d="M256,331.686c-7.284,0-13.194-5.91-13.194-13.194v-8.796c0-7.284,5.91-13.194,13.194-13.194
		s13.194,5.91,13.194,13.194v8.796C269.194,325.776,263.284,331.686,256,331.686z"/>
	<path style="fill:#5B5D6E;" d="M256,384.461c-7.284,0-13.194-5.91-13.194-13.194v-8.796c0-7.284,5.91-13.194,13.194-13.194
		s13.194,5.91,13.194,13.194v8.796C269.194,378.551,263.284,384.461,256,384.461z"/>
</g>
<path style="fill:#464655;" d="M282.388,503.205v-35.183c0-14.574-11.814-26.388-26.388-26.388l0,0
	c-14.574,0-26.388,11.814-26.388,26.388v35.183"/>
<g>
	<path style="fill:#D5DCED;" d="M430.148,21.237c-3.436-3.436-9.003-3.436-12.438,0L264.273,174.675l12.438,12.438L430.148,33.676
		C433.584,30.24,433.584,24.673,430.148,21.237z"/>
	<path style="fill:#D5DCED;" d="M236.786,202.162L81.853,357.095c-3.436,3.436-3.436,9.003,0,12.438
		c1.718,1.718,3.968,2.577,6.219,2.577c2.251,0,4.501-0.859,6.219-2.577l154.932-154.932L236.786,202.162z"/>
	<path style="fill:#D5DCED;" d="M430.148,357.095l-153.49-153.49l-12.438,12.438l153.49,153.49c1.718,1.718,3.968,2.577,6.219,2.577
		c2.251,0,4.501-0.859,6.219-2.577C433.584,366.096,433.584,360.531,430.148,357.095z"/>
	<path style="fill:#D5DCED;" d="M94.291,21.237c-3.436-3.436-9.003-3.436-12.438,0c-3.436,3.436-3.436,9.003,0,12.438l153.97,153.97
		l12.438-12.438L94.291,21.237z"/>
</g>
<g>
	<circle style="fill:#AFB9D2;" cx="256.004" cy="195.39" r="26.388"/>
	<path style="fill:#AFB9D2;" d="M379.142,512.001H132.858c-4.862,0-8.796-3.934-8.796-8.796c0-4.862,3.934-8.796,8.796-8.796
		h246.284c4.862,0,8.796,3.934,8.796,8.796C387.938,508.067,384.004,512.001,379.142,512.001z"/>
</g>
</svg>